<?plantuml 1.2026.2?><svg xmlns="http://www.w3.org/2000/svg" xmlns:xlink="http://www.w3.org/1999/xlink" contentStyleType="text/css" data-diagram-type="STATE" height="877px" preserveAspectRatio="none" style="width:435px;height:877px;background:#FFFFFF;" version="1.1" viewBox="0 0 435 877" width="435px" zoomAndPan="magnify"><defs/><g><path d="M22,7 L352,7 A12.5,12.5 0 0 1 364.5,19.5 L364.5,33.2969 L9.5,33.2969 L9.5,19.5 A12.5,12.5 0 0 1 22,7" fill="#F1F1F1"/><rect fill="none" height="719.2969" rx="12.5" ry="12.5" style="stroke:#181818;stroke-width:0.5;" width="355" x="9.5" y="7"/><line style="stroke:#181818;stroke-width:0.5;" x1="9.5" x2="364.5" y1="33.2969" y2="33.2969"/><text fill="#000000" font-family="sans-serif" font-size="14" lengthAdjust="spacing" textLength="224.4648" x="74.7676" y="24.9951">crearTraspasoFlujoAutomatico()</text><g class="entity" data-qualified-name="crearTraspasoFlujoAutomatico.ValidandoSesion" id="ent0003"><rect fill="#F1F1F1" height="50" rx="12.5" ry="12.5" style="stroke:#181818;stroke-width:0.5;" width="50" x="21.5" y="150.2969"/><line style="stroke:#181818;stroke-width:0.5;" x1="21.5" x2="71.5" y1="176.5938" y2="176.5938"/><text fill="#000000" font-family="sans-serif" font-size="14" lengthAdjust="spacing" textLength="4.4502" x="44.2749" y="168.292">&#160;</text></g><g class="entity" data-qualified-name="crearTraspasoFlujoAutomatico.CreandoTraspaso" id="ent0004"><rect fill="#F1F1F1" height="50" rx="12.5" ry="12.5" style="stroke:#181818;stroke-width:0.5;" width="50" x="21.5" y="286.2969"/><line style="stroke:#181818;stroke-width:0.5;" x1="21.5" x2="71.5" y1="312.5938" y2="312.5938"/><text fill="#000000" font-family="sans-serif" font-size="14" lengthAdjust="spacing" textLength="4.4502" x="44.2749" y="304.292">&#160;</text></g><g class="entity" data-qualified-name="crearTraspasoFlujoAutomatico.PreparandoContexto" id="ent0005"><rect fill="#F1F1F1" height="50" rx="12.5" ry="12.5" style="stroke:#181818;stroke-width:0.5;" width="50" x="21.5" y="422.2969"/><line style="stroke:#181818;stroke-width:0.5;" x1="21.5" x2="71.5" y1="448.5938" y2="448.5938"/><text fill="#000000" font-family="sans-serif" font-size="14" lengthAdjust="spacing" textLength="4.4502" x="44.2749" y="440.292">&#160;</text></g><g class="entity" data-qualified-name="crearTraspasoFlujoAutomatico.ActivandoEntornoAgentes" id="ent0006"><rect fill="#F1F1F1" height="50" rx="12.5" ry="12.5" style="stroke:#181818;stroke-width:0.5;" width="50" x="21.5" y="558.2969"/><line style="stroke:#181818;stroke-width:0.5;" x1="21.5" x2="71.5" y1="584.5938" y2="584.5938"/><text fill="#000000" font-family="sans-serif" font-size="14" lengthAdjust="spacing" textLength="4.4502" x="44.2749" y="576.292">&#160;</text></g><g class="start_entity" data-qualified-name="crearTraspasoFlujoAutomatico..start.crearTraspasoFlujoAutomatico" data-source-line="10" id="ent0002"><ellipse cx="46.5" cy="54.2969" fill="#222222" rx="10" ry="10" style="stroke:#222222;stroke-width:1;"/></g><g class="end_entity" data-qualified-name="crearTraspasoFlujoAutomatico..end.crearTraspasoFlujoAutomatico" data-source-line="34" id="ent0007"><ellipse cx="46.5" cy="705.2969" fill="none" rx="11" ry="11" style="stroke:#222222;stroke-width:1;"/><ellipse cx="46.5" cy="705.2969" fill="#222222" rx="6" ry="6" style="stroke:#222222;stroke-width:1;"/></g><!--link *start*crearTraspasoFlujoAutomatico to ValidandoSesion--><g class="link" data-entity-1="ent0002" data-entity-2="ent0003" data-link-type="dependency" data-source-line="10" id="lnk3"><path d="M46.5,64.6369 C46.5,82.8269 46.5,117.5369 46.5,143.9069" fill="none" id="*start*crearTraspasoFlujoAutomatico-to-ValidandoSesion" style="stroke:#008000;stroke-width:1;"/><polygon fill="#008000" points="46.5,149.9069,50.5,140.9069,46.5,144.9069,42.5,140.9069,46.5,149.9069" style="stroke:#008000;stroke-width:1;"/><path d="M51.5,87.2969 L51.5,127.2969 L229.5,127.2969 L229.5,97.2969 L219.5,87.2969 L51.5,87.2969" fill="#FEFFDD" style="stroke:#181818;stroke-width:0.5;"/><path d="M219.5,87.2969 L219.5,97.2969 L229.5,97.2969 L219.5,87.2969" fill="#FEFFDD" style="stroke:#181818;stroke-width:0.5;"/><text fill="#000000" font-family="sans-serif" font-size="13" lengthAdjust="spacing" textLength="157.6885" x="57.5" y="104.3638">Se solicita iniciar el flujo</text><text fill="#000000" font-family="sans-serif" font-size="13" lengthAdjust="spacing" textLength="157.625" x="57.5" y="119.4966">automatico con agentes</text></g><!--link ValidandoSesion to CreandoTraspaso--><g class="link" data-entity-1="ent0003" data-entity-2="ent0004" data-link-type="dependency" data-source-line="16" id="lnk4"><path d="M46.5,200.5669 C46.5,224.8469 46.5,255.9869 46.5,280.2069" fill="none" id="ValidandoSesion-to-CreandoTraspaso" style="stroke:#008000;stroke-width:1;"/><polygon fill="#008000" points="46.5,286.2069,50.5,277.2069,46.5,281.2069,42.5,277.2069,46.5,286.2069" style="stroke:#008000;stroke-width:1;"/><path d="M51.5,223.2969 L51.5,263.2969 L349.5,263.2969 L349.5,233.2969 L339.5,223.2969 L51.5,223.2969" fill="#FEFFDD" style="stroke:#181818;stroke-width:0.5;"/><path d="M339.5,223.2969 L339.5,233.2969 L349.5,233.2969 L339.5,223.2969" fill="#FEFFDD" style="stroke:#181818;stroke-width:0.5;"/><text fill="#000000" font-family="sans-serif" font-size="13" font-weight="bold" lengthAdjust="spacing" textLength="58.9063" x="57.5" y="240.3638">Sistema</text><text fill="#000000" font-family="sans-serif" font-size="13" lengthAdjust="spacing" textLength="128.9146" x="120.5386" y="240.3638">valida que la sesion</text><text fill="#000000" font-family="sans-serif" font-size="13" lengthAdjust="spacing" textLength="277.3608" x="57.5" y="255.4966">tenga proyecto y documentacion asociada</text></g><!--link CreandoTraspaso to PreparandoContexto--><g class="link" data-entity-1="ent0004" data-entity-2="ent0005" data-link-type="dependency" data-source-line="22" id="lnk5"><path d="M46.5,336.5669 C46.5,360.8469 46.5,391.9869 46.5,416.2069" fill="none" id="CreandoTraspaso-to-PreparandoContexto" style="stroke:#008000;stroke-width:1;"/><polygon fill="#008000" points="46.5,422.2069,50.5,413.2069,46.5,417.2069,42.5,413.2069,46.5,422.2069" style="stroke:#008000;stroke-width:1;"/><path d="M51.5,359.2969 L51.5,399.2969 L239.5,399.2969 L239.5,369.2969 L229.5,359.2969 L51.5,359.2969" fill="#FEFFDD" style="stroke:#181818;stroke-width:0.5;"/><path d="M229.5,359.2969 L229.5,369.2969 L239.5,369.2969 L229.5,359.2969" fill="#FEFFDD" style="stroke:#181818;stroke-width:0.5;"/><text fill="#000000" font-family="sans-serif" font-size="13" font-weight="bold" lengthAdjust="spacing" textLength="58.9063" x="57.5" y="376.3638">Sistema</text><text fill="#000000" font-family="sans-serif" font-size="13" lengthAdjust="spacing" textLength="104.457" x="120.5386" y="376.3638">crea el traspaso</text><text fill="#000000" font-family="sans-serif" font-size="13" lengthAdjust="spacing" textLength="143.3745" x="57.5" y="391.4966">al entorno de agentes</text></g><!--link PreparandoContexto to ActivandoEntornoAgentes--><g class="link" data-entity-1="ent0005" data-entity-2="ent0006" data-link-type="dependency" data-source-line="28" id="lnk6"><path d="M46.5,472.5669 C46.5,496.8469 46.5,527.9869 46.5,552.2069" fill="none" id="PreparandoContexto-to-ActivandoEntornoAgentes" style="stroke:#008000;stroke-width:1;"/><polygon fill="#008000" points="46.5,558.2069,50.5,549.2069,46.5,553.2069,42.5,549.2069,46.5,558.2069" style="stroke:#008000;stroke-width:1;"/><path d="M51.5,495.2969 L51.5,535.2969 L318.5,535.2969 L318.5,505.2969 L308.5,495.2969 L51.5,495.2969" fill="#FEFFDD" style="stroke:#181818;stroke-width:0.5;"/><path d="M308.5,495.2969 L308.5,505.2969 L318.5,505.2969 L308.5,495.2969" fill="#FEFFDD" style="stroke:#181818;stroke-width:0.5;"/><text fill="#000000" font-family="sans-serif" font-size="13" font-weight="bold" lengthAdjust="spacing" textLength="58.9063" x="57.5" y="512.3638">Sistema</text><text fill="#000000" font-family="sans-serif" font-size="13" lengthAdjust="spacing" textLength="183.3013" x="120.5386" y="512.3638">transfiere la documentacion</text><text fill="#000000" font-family="sans-serif" font-size="13" lengthAdjust="spacing" textLength="223.4502" x="57.5" y="527.4966">y prepara los artefactos derivados</text></g><!--link ActivandoEntornoAgentes to *end*crearTraspasoFlujoAutomatico--><g class="link" data-entity-1="ent0006" data-entity-2="ent0007" data-link-type="dependency" data-source-line="34" id="lnk8"><path d="M46.5,608.5769 C46.5,634.8769 46.5,669.5669 46.5,688.2769" fill="none" id="ActivandoEntornoAgentes-to-*end*crearTraspasoFlujoAutomatico" style="stroke:#008000;stroke-width:1;"/><polygon fill="#008000" points="46.5,694.2769,50.5,685.2769,46.5,689.2769,42.5,685.2769,46.5,694.2769" style="stroke:#008000;stroke-width:1;"/><path d="M51.5,631.2969 L51.5,671.2969 L355.5,671.2969 L355.5,641.2969 L345.5,631.2969 L51.5,631.2969" fill="#FEFFDD" style="stroke:#181818;stroke-width:0.5;"/><path d="M345.5,631.2969 L345.5,641.2969 L355.5,641.2969 L345.5,631.2969" fill="#FEFFDD" style="stroke:#181818;stroke-width:0.5;"/><text fill="#000000" font-family="sans-serif" font-size="13" font-weight="bold" lengthAdjust="spacing" textLength="58.9063" x="57.5" y="648.3638">Sistema</text><text fill="#000000" font-family="sans-serif" font-size="13" lengthAdjust="spacing" textLength="219.9717" x="120.5386" y="648.3638">marca la sesion como automatica</text><text fill="#000000" font-family="sans-serif" font-size="13" lengthAdjust="spacing" textLength="257.8799" x="57.5" y="663.4966">y deja disponible el entorno de agentes</text></g><g class="entity" data-qualified-name="AGENTES_ABIERTO" id="ent0009"><rect fill="#F1F1F1" height="50" rx="12.5" ry="12.5" style="stroke:#181818;stroke-width:0.5;" width="154.4834" x="7" y="821"/><line style="stroke:#181818;stroke-width:0.5;" x1="7" x2="161.4834" y1="847.2969" y2="847.2969"/><text fill="#000000" font-family="sans-serif" font-size="14" lengthAdjust="spacing" textLength="134.4834" x="17" y="838.9951">AGENTES_ABIERTO</text></g><g class="entity" data-qualified-name="SESION_ABIERTA" id="ent0011"><rect fill="#F1F1F1" height="50" rx="12.5" ry="12.5" style="stroke:#181818;stroke-width:0.5;" width="139.2529" x="220.5" y="821"/><line style="stroke:#181818;stroke-width:0.5;" x1="220.5" x2="359.7529" y1="847.2969" y2="847.2969"/><text fill="#000000" font-family="sans-serif" font-size="14" lengthAdjust="spacing" textLength="119.2529" x="230.5" y="838.9951">SESION_ABIERTA</text></g><!--link crearTraspasoFlujoAutomatico to AGENTES_ABIERTO--><g class="link" data-entity-1="ent0002" data-entity-2="ent0009" data-link-type="dependency" data-source-line="41" id="lnk10"><path d="M89.14,726.16 C84.06,744.78 81,756 81,756 C81,756 81,791 81,791 C81,791 81.5265,800.4793 82.3265,814.8493" fill="none" id="crearTraspasoFlujoAutomatico-to-AGENTES_ABIERTO" style="stroke:#008000;stroke-width:1;"/><polygon fill="#008000" points="82.66,820.84,86.1535,811.6316,82.3821,815.8477,78.1659,812.0763,82.66,820.84" style="stroke:#008000;stroke-width:1;"/><path d="M86,761 L86,786 L242,786 L242,771 L232,761 L86,761" fill="#FEFFDD" style="stroke:#181818;stroke-width:0.5;"/><path d="M232,761 L232,771 L242,771 L232,761" fill="#FEFFDD" style="stroke:#181818;stroke-width:0.5;"/><text fill="#000000" font-family="sans-serif" font-size="13" lengthAdjust="spacing" textLength="135.1479" x="92" y="778.0669">completarTraspaso()</text></g><!--link crearTraspasoFlujoAutomatico to SESION_ABIERTA--><g class="link" data-entity-1="ent0002" data-entity-2="ent0011" data-link-type="dependency" data-source-line="46" id="lnk12"><path d="M264.34,726.05 C272.92,765.8 278.9349,793.7149 283.5249,814.9949" fill="none" id="crearTraspasoFlujoAutomatico-to-SESION_ABIERTA" style="stroke:#FF0000;stroke-width:1;"/><polygon fill="#FF0000" points="284.79,820.86,286.8025,811.2189,283.7358,815.9724,278.9823,812.9057,284.79,820.86" style="stroke:#FF0000;stroke-width:1;"/><path d="M282,761 L282,786 L428,786 L428,771 L418,761 L282,761" fill="#FEFFDD" style="stroke:#181818;stroke-width:0.5;"/><path d="M418,761 L418,771 L428,771 L418,761" fill="#FEFFDD" style="stroke:#181818;stroke-width:0.5;"/><text fill="#000000" font-family="sans-serif" font-size="13" lengthAdjust="spacing" textLength="125.9438" x="288" y="778.0669">rechazarTraspaso()</text></g><?plantuml-src ZPF1JiCm44Jl-OfLkG0IuWTGfO02uWA8L5mGGbjxMmoEDzWk8Y3-dNLQ54BJbkGG9PdCl1qxuSMu6ZrMO8sZsDG4DTictMHPY1W9b2Vq4u-Xni3dTl7C-I9oXT4e1WmmsYROFnZ1PvQ174ktaPpoqHrQez5fBYaOTkk2Cp6Lrp-swu8RJmbSD6Vi8ht70KskedbBai95zexpEOaqB7dk3n_Ww7vlxedSmz5u4CcncB5BvRoq3qg2mDOe4n6Caojw80kpD7KhmAuR9H_YAZ6z8gTRmsNydxWUoj3mQoWdqt5fGgGAJuwdOtXh_U1rGM0HGZT393T7g3qtf2930vhLeX8iL2bN_6KAZGE8Vp1wY1lgtqMPzaegBFuU3Qq4jmi4chPKjfxPGzgqsl_X4XuNPePysrwleLRUI85jE5WEW3xI3AND8C1UGZKFyMu0wa7BBlmNO8LUORUoihagxZORhY0rFGkz2JKxCxMKcjxLx5UMRVt3UmrV55UJedpCJo-BsybrreCMejfIx9ps3xAkZrqPddHAA8loylfg5P3t0pof9_mOzFy6?></g></svg>