<?plantuml 1.2026.2?><svg xmlns="http://www.w3.org/2000/svg" xmlns:xlink="http://www.w3.org/1999/xlink" contentStyleType="text/css" data-diagram-type="DESCRIPTION" height="694px" preserveAspectRatio="none" style="width:971px;height:694px;background:#FFFFFF;" version="1.1" viewBox="0 0 971 694" width="971px" zoomAndPan="magnify"><defs/><g><!--cluster Contexto organizativo--><g class="cluster" data-qualified-name="Contexto organizativo" data-source-line="1" id="ent0002"><rect fill="none" height="87" rx="2.5" ry="2.5" style="stroke:#181818;stroke-width:1;" width="190" x="527" y="254"/><text fill="#000000" font-family="sans-serif" font-size="14" font-weight="bold" lengthAdjust="spacing" textLength="174.8496" x="534.5752" y="268.9951">Contexto organizativo</text></g><!--cluster Modelo de Dominio--><g class="cluster" data-qualified-name="Modelo de Dominio" data-source-line="5" id="ent0004"><rect fill="none" height="681.5" rx="2.5" ry="2.5" style="stroke:#181818;stroke-width:1;" width="496" x="7" y="7"/><text fill="#000000" font-family="sans-serif" font-size="14" font-weight="bold" lengthAdjust="spacing" textLength="151.7578" x="179.1211" y="21.9951">Modelo de Dominio</text></g><!--entity Proyecto--><g class="entity" data-qualified-name="Contexto organizativo.Proyecto" data-source-line="2" id="ent0003"><rect fill="#F1F1F1" height="36.2969" rx="2.5" ry="2.5" style="stroke:#181818;stroke-width:0.5;" width="81.4141" x="543.5" y="289"/><text fill="#000000" font-family="sans-serif" font-size="14" lengthAdjust="spacing" textLength="61.4141" x="553.5" y="311.9951">Proyecto</text></g><!--entity Usuario--><g class="entity" data-qualified-name="Modelo de Dominio.Usuario" data-source-line="6" id="ent0005"><rect fill="#F1F1F1" height="36.2969" rx="2.5" ry="2.5" style="stroke:#181818;stroke-width:0.5;" width="73.2041" x="226.5" y="42"/><text fill="#000000" font-family="sans-serif" font-size="14" lengthAdjust="spacing" textLength="53.2041" x="236.5" y="64.9951">Usuario</text></g><!--entity SesionTrabajo--><g class="entity" data-qualified-name="Modelo de Dominio.SesionTrabajo" data-source-line="7" id="ent0006"><rect fill="#F1F1F1" height="36.2969" rx="2.5" ry="2.5" style="stroke:#181818;stroke-width:0.5;" width="142.2676" x="192" y="155"/><text fill="#000000" font-family="sans-serif" font-size="14" lengthAdjust="spacing" textLength="122.2676" x="202" y="177.9951">Sesion de trabajo</text></g><!--entity Documentacion--><g class="entity" data-qualified-name="Modelo de Dominio.Documentacion" data-source-line="8" id="ent0007"><rect fill="#F1F1F1" height="36.2969" rx="2.5" ry="2.5" style="stroke:#181818;stroke-width:0.5;" width="130.1338" x="357" y="410.5"/><text fill="#000000" font-family="sans-serif" font-size="14" lengthAdjust="spacing" textLength="110.1338" x="367" y="433.4951">Documentacion</text></g><!--entity CasoDeUso--><g class="entity" data-qualified-name="Modelo de Dominio.CasoDeUso" data-source-line="9" id="ent0008"><rect fill="#F1F1F1" height="36.2969" rx="2.5" ry="2.5" style="stroke:#181818;stroke-width:0.5;" width="99.7139" x="275" y="523.5"/><text fill="#000000" font-family="sans-serif" font-size="14" lengthAdjust="spacing" textLength="79.7139" x="285" y="546.4951">CasoDeUso</text></g><!--entity RequisitoFuncional--><g class="entity" data-qualified-name="Modelo de Dominio.RequisitoFuncional" data-source-line="10" id="ent0009"><rect fill="#F1F1F1" height="36.2969" rx="2.5" ry="2.5" style="stroke:#181818;stroke-width:0.5;" width="152.5215" x="138.5" y="636.5"/><text fill="#000000" font-family="sans-serif" font-size="14" lengthAdjust="spacing" textLength="132.5215" x="148.5" y="659.4951">RequisitoFuncional</text></g><!--entity EscenarioGherkin--><g class="entity" data-qualified-name="Modelo de Dominio.EscenarioGherkin" data-source-line="11" id="ent0010"><rect fill="#F1F1F1" height="36.2969" rx="2.5" ry="2.5" style="stroke:#181818;stroke-width:0.5;" width="143.0742" x="141.5" y="410.5"/><text fill="#000000" font-family="sans-serif" font-size="14" lengthAdjust="spacing" textLength="123.0742" x="151.5" y="433.4951">EscenarioGherkin</text></g><!--entity Borrador--><g class="entity" data-qualified-name="Modelo de Dominio.Borrador" data-source-line="12" id="ent0011"><rect fill="#F1F1F1" height="36.2969" rx="2.5" ry="2.5" style="stroke:#181818;stroke-width:0.5;" width="81.4688" x="208.5" y="289"/><text fill="#000000" font-family="sans-serif" font-size="14" lengthAdjust="spacing" textLength="61.4688" x="218.5" y="311.9951">Borrador</text></g><!--entity CasoPrueba--><g class="entity" data-qualified-name="Modelo de Dominio.CasoPrueba" data-source-line="13" id="ent0012"><rect fill="#F1F1F1" height="36.2969" rx="2.5" ry="2.5" style="stroke:#181818;stroke-width:0.5;" width="103.3643" x="377.5" y="155"/><text fill="#000000" font-family="sans-serif" font-size="14" lengthAdjust="spacing" textLength="83.3643" x="387.5" y="177.9951">CasoPrueba</text></g><!--entity KiwiTCMS--><g class="entity" data-qualified-name="KiwiTCMS" data-source-line="39" id="ent0028"><rect fill="#F1F1F1" height="52.5938" rx="2.5" ry="2.5" style="stroke:#181818;stroke-width:0.5;" width="233.4453" x="732.5" y="280.5"/><text fill="#000000" font-family="sans-serif" font-size="14" lengthAdjust="spacing" textLength="67.7031" x="742.5" y="303.4951">KiwiTCMS</text><text fill="#000000" font-family="sans-serif" font-size="14" lengthAdjust="spacing" textLength="213.4453" x="742.5" y="319.792">[sistema externo participante]</text></g><!--link Usuario to SesionTrabajo--><g class="link" data-entity-1="ent0005" data-entity-2="ent0006" data-link-type="dependency" data-source-line="15" id="lnk13"><path d="M263,78.34 C263,99.2 263,127.98 263,148.78" fill="none" id="Usuario-to-SesionTrabajo" style="stroke:#181818;stroke-width:1;"/><polygon fill="#181818" points="263,154.78,267,145.78,263,149.78,259,145.78,263,154.78" style="stroke:#181818;stroke-width:1;"/><text fill="#000000" font-family="sans-serif" font-size="13" lengthAdjust="spacing" textLength="88.7275" x="264" y="121.0669">crea/gestiona</text></g><!--link SesionTrabajo to Proyecto--><g class="link" data-entity-1="ent0006" data-entity-2="ent0003" data-link-type="dependency" data-source-line="16" id="lnk14"><path d="M334.06,187.68 C383.37,198.96 449.53,217.76 503,246 C525.59,257.93 544.1526,271.9266 559.8926,285.0566" fill="none" id="SesionTrabajo-to-Proyecto" style="stroke:#181818;stroke-width:1;"/><polygon fill="#181818" points="564.5,288.9,560.1512,280.0633,560.6605,285.6972,555.0266,286.2065,564.5,288.9" style="stroke:#181818;stroke-width:1;"/><text fill="#000000" font-family="sans-serif" font-size="13" lengthAdjust="spacing" textLength="41.1074" x="485" y="234.0669">refleja</text></g><!--reverse link SesionTrabajo to Documentacion--><g class="link" data-entity-1="ent0006" data-entity-2="ent0007" data-link-type="aggregation" data-source-line="18" id="lnk15"><path d="M308.4238,197.344 C321.3538,205.034 324.96,208.97 335,221 C384.74,280.58 409.79,372.71 418.43,410.47" fill="none" id="SesionTrabajo-backto-Documentacion" style="stroke:#181818;stroke-width:1;"/><polygon fill="none" points="298.11,191.21,301.2222,197.7149,308.4238,197.344,305.3116,190.8391,298.11,191.21" style="stroke:#181818;stroke-width:1;"/><text fill="#000000" font-family="sans-serif" font-size="13" lengthAdjust="spacing" textLength="46.0205" x="401" y="311.5669">agrupa</text></g><!--reverse link SesionTrabajo to CasoDeUso--><g class="link" data-entity-1="ent0006" data-entity-2="ent0008" data-link-type="aggregation" data-source-line="19" id="lnk16"><path d="M303.5849,198.2165 C314.1849,205.8565 315.12,208.87 321,221 C347.12,274.92 332.01,465.31 326.65,523.49" fill="none" id="SesionTrabajo-backto-CasoDeUso" style="stroke:#181818;stroke-width:1;"/><polygon fill="none" points="293.85,191.2,296.3786,197.9532,303.5849,198.2165,301.0563,191.4633,293.85,191.2" style="stroke:#181818;stroke-width:1;"/><text fill="#000000" font-family="sans-serif" font-size="13" lengthAdjust="spacing" textLength="46.0205" x="336" y="376.5669">agrupa</text></g><!--reverse link SesionTrabajo to RequisitoFuncional--><g class="link" data-entity-1="ent0006" data-entity-2="ent0009" data-link-type="aggregation" data-source-line="20" id="lnk17"><path d="M188.9232,195.1252 C168.8432,202.3752 158.58,208.13 141,221 C79.45,266.05 78.66,390.71 76,410.5 C63.19,505.88 153.35,599.08 194.86,636.42" fill="none" id="SesionTrabajo-backto-RequisitoFuncional" style="stroke:#181818;stroke-width:1;"/><polygon fill="none" points="200.21,191.05,193.2082,189.3253,188.9232,195.1252,195.925,196.8499,200.21,191.05" style="stroke:#181818;stroke-width:1;"/><text fill="#000000" font-family="sans-serif" font-size="13" lengthAdjust="spacing" textLength="46.0205" x="77" y="433.0669">agrupa</text></g><!--reverse link SesionTrabajo to EscenarioGherkin--><g class="link" data-entity-1="ent0006" data-entity-2="ent0010" data-link-type="aggregation" data-source-line="21" id="lnk18"><path d="M200.4469,195.9297 C175.0369,207.2397 157.72,220 143,246 C120.45,285.84 126.7,306.22 143,349 C152.49,373.91 173.93,395.94 190.59,410.27" fill="none" id="SesionTrabajo-backto-EscenarioGherkin" style="stroke:#181818;stroke-width:1;"/><polygon fill="none" points="211.41,191.05,204.3019,189.8355,200.4469,195.9297,207.555,197.1442,211.41,191.05" style="stroke:#181818;stroke-width:1;"/><text fill="#000000" font-family="sans-serif" font-size="13" lengthAdjust="spacing" textLength="46.0205" x="144" y="311.5669">agrupa</text></g><!--reverse link SesionTrabajo to Borrador--><g class="link" data-entity-1="ent0006" data-entity-2="ent0011" data-link-type="aggregation" data-source-line="22" id="lnk19"><path d="M259.9054,203.1932 C257.2254,228.4832 253.51,263.44 250.83,288.74" fill="none" id="SesionTrabajo-backto-Borrador" style="stroke:#181818;stroke-width:1;"/><polygon fill="none" points="261.17,191.26,256.56,196.8051,259.9054,203.1932,264.5154,197.6481,261.17,191.26" style="stroke:#181818;stroke-width:1;"/><text fill="#000000" font-family="sans-serif" font-size="13" lengthAdjust="spacing" textLength="56.2847" x="259" y="234.0669">contiene</text></g><!--reverse link Proyecto to Documentacion--><g class="link" data-entity-1="ent0003" data-entity-2="ent0007" data-link-type="aggregation" data-source-line="24" id="lnk20"><path d="M551.1331,332.2435 C520.3331,354.9635 475.94,387.71 445.17,410.41" fill="none" id="Proyecto-backto-Documentacion" style="stroke:#181818;stroke-width:1;"/><polygon fill="none" points="560.79,325.12,553.587,325.4628,551.1331,332.2435,558.3361,331.9007,560.79,325.12" style="stroke:#181818;stroke-width:1;"/></g><!--reverse link Documentacion to CasoDeUso--><g class="link" data-entity-1="ent0007" data-entity-2="ent0008" data-link-type="aggregation" data-source-line="26" id="lnk21"><path d="M398.9459,455.8779 C380.7259,476.7379 358.23,502.48 340.05,523.28" fill="none" id="Documentacion-backto-CasoDeUso" style="stroke:#181818;stroke-width:1;"/><polygon fill="none" points="406.84,446.84,399.8803,448.7276,398.9459,455.8779,405.9056,453.9903,406.84,446.84" style="stroke:#181818;stroke-width:1;"/></g><!--reverse link Documentacion to RequisitoFuncional--><g class="link" data-entity-1="ent0007" data-entity-2="ent0009" data-link-type="aggregation" data-source-line="27" id="lnk22"><path d="M421.9316,458.7174 C421.3816,485.2774 417.21,524.79 393,559.5 C365.91,598.34 317.63,622.4 278.18,636.44" fill="none" id="Documentacion-backto-RequisitoFuncional" style="stroke:#181818;stroke-width:1;"/><polygon fill="none" points="422.18,446.72,418.0566,452.6359,421.9316,458.7174,426.0549,452.8015,422.18,446.72" style="stroke:#181818;stroke-width:1;"/></g><!--link CasoDeUso to RequisitoFuncional--><g class="link" data-entity-1="ent0008" data-entity-2="ent0009" data-link-type="association" data-source-line="29" id="lnk23"><path d="M307.81,559.84 C287.15,580.7 252.68,615.48 232.07,636.28" fill="none" id="CasoDeUso-RequisitoFuncional" style="stroke:#181818;stroke-width:1;"/><text fill="#000000" font-family="sans-serif" font-size="13" lengthAdjust="spacing" textLength="33.1982" x="278" y="602.5669">traza</text></g><!--link EscenarioGherkin to CasoDeUso--><g class="link" data-entity-1="ent0010" data-entity-2="ent0008" data-link-type="dependency" data-source-line="31" id="lnk24"><path d="M215.65,446.73 C218.57,460.71 224.47,480.22 236,493.5 C247.11,506.3 257.1884,513.5174 272.1184,520.8074" fill="none" id="EscenarioGherkin-to-CasoDeUso" style="stroke:#181818;stroke-width:1;"/><polygon fill="#181818" points="277.51,523.44,271.1777,515.8967,273.017,521.2462,267.6675,523.0855,277.51,523.44" style="stroke:#181818;stroke-width:1;"/><text fill="#000000" font-family="sans-serif" font-size="13" lengthAdjust="spacing" textLength="74.5596" x="237" y="489.5669">cubre/traza</text></g><!--link EscenarioGherkin to RequisitoFuncional--><g class="link" data-entity-1="ent0010" data-entity-2="ent0009" data-link-type="dependency" data-source-line="32" id="lnk25"><path d="M204.11,446.59 C192.32,471.29 173.82,518.52 181,559.5 C185.88,587.36 195.8472,612.3878 204.2472,630.8678" fill="none" id="EscenarioGherkin-to-RequisitoFuncional" style="stroke:#181818;stroke-width:1;"/><polygon fill="#181818" points="206.73,636.33,206.6472,626.4815,204.661,631.7782,199.3643,629.7919,206.73,636.33" style="stroke:#181818;stroke-width:1;"/><text fill="#000000" font-family="sans-serif" font-size="13" lengthAdjust="spacing" textLength="74.5596" x="182" y="546.0669">cubre/traza</text></g><!--reverse link Borrador to EscenarioGherkin--><g class="link" data-entity-1="ent0011" data-entity-2="ent0010" data-link-type="aggregation" data-source-line="34" id="lnk26"><path d="M232.3643,335.7792 C226.3143,346.4092 225.09,350.08 221,363.5 C216.3,378.92 214.36,397.25 213.55,410.33" fill="none" id="Borrador-backto-EscenarioGherkin" style="stroke:#181818;stroke-width:1;"/><polygon fill="none" points="238.3,325.35,231.8558,328.586,232.3643,335.7792,238.8085,332.5431,238.3,325.35" style="stroke:#181818;stroke-width:1;"/><text fill="#000000" font-family="sans-serif" font-size="13" lengthAdjust="spacing" textLength="56.2847" x="222" y="376.5669">contiene</text></g><!--link CasoPrueba to Borrador--><g class="link" data-entity-1="ent0012" data-entity-2="ent0011" data-link-type="dependency" data-source-line="36" id="lnk27"><path d="M405.47,191.26 C370.88,216.62 311.5183,260.1517 277.0883,285.4017" fill="none" id="CasoPrueba-to-Borrador" style="stroke:#181818;stroke-width:1;"/><polygon fill="#181818" points="272.25,288.95,281.873,286.8531,276.282,285.9931,277.142,280.402,272.25,288.95" style="stroke:#181818;stroke-width:1;"/><text fill="#000000" font-family="sans-serif" font-size="13" lengthAdjust="spacing" textLength="61.2485" x="361" y="234.0669">deriva de</text></g><!--link CasoPrueba to KiwiTCMS--><g class="link" data-entity-1="ent0012" data-entity-2="ent0028" data-link-type="dependency" data-source-line="40" id="lnk29"><path d="M480.5,190.19 C552.13,212.7 676.8461,251.891 761.7661,278.581" fill="none" id="CasoPrueba-to-KiwiTCMS" style="stroke:#181818;stroke-width:1;"/><polygon fill="#181818" points="767.49,280.38,760.1034,273.8655,762.72,278.8808,757.7047,281.4974,767.49,280.38" style="stroke:#181818;stroke-width:1;"/><text fill="#000000" font-family="sans-serif" font-size="13" lengthAdjust="spacing" textLength="55.7324" x="627" y="234.0669">registrar</text></g><?plantuml-src VPEnKiCm38RtF8KlUwux0mCjC72zwz5s0WRL4K4bjOhi52Z7ksEd98sRj5CkqYVB_sz9K3imHOag7RDn-ELOiHHWQ0-ETfogdqGfQQcPyBV_uUGtIOxHTCevbgnoL1FUaA5UtT9M8CHHB9sZ9JQXoWciOEshmAf3T768H0KJrjK6ZGFjWIWp1iiJNDgOVyIFYYmvlgjCA84oIjzQZIRSwluDvPtY4szO17AMNfkPLBY2nCV_DQaikuulhQwK5eHHWTQ5jfwDyw6YSTB3WgybhkipOuwpB1RjOIYasi8Wshfm6UlRSfa_zUaotHWNJF0JHMWm26lbzZI5R2moqZAO7NXPpntrdrFfvsnV-zpJ59wawv-kLeAZ0ty67-pGhVE5hHjdZEnQT9ok-lYEaJaAxS1_JjRkWJvfCPxEdysJ9Ujm0yflC8fXjGLnf6aBVgbVwhrguEIaJnEl1x7mnmZ87m00?></g></svg>