<?plantuml 1.2026.2?><svg xmlns="http://www.w3.org/2000/svg" xmlns:xlink="http://www.w3.org/1999/xlink" contentStyleType="text/css" data-diagram-type="CLASS" height="1101px" preserveAspectRatio="none" style="width:1462px;height:1101px;background:#FFFFFF;" version="1.1" viewBox="0 0 1462 1101" width="1462px" zoomAndPan="magnify"><defs/><g><!--cluster Sistema--><g class="cluster" data-qualified-name="Sistema" data-source-line="1" id="ent0002"><path d="M8.5,6 L72.9375,6 A3.75,3.75 0 0 1 75.4375,8.5 L82.4375,28.2969 L1265.5,28.2969 A2.5,2.5 0 0 1 1268,30.7969 L1268,1091.5 A2.5,2.5 0 0 1 1265.5,1094 L8.5,1094 A2.5,2.5 0 0 1 6,1091.5 L6,8.5 A2.5,2.5 0 0 1 8.5,6" fill="none" style="stroke:#000000;stroke-width:1.5;"/><line style="stroke:#000000;stroke-width:1.5;" x1="6" x2="82.4375" y1="28.2969" y2="28.2969"/><text fill="#000000" font-family="sans-serif" font-size="14" font-weight="bold" lengthAdjust="spacing" textLength="63.4375" x="10" y="20.9951">Sistema</text></g><g class="entity" data-qualified-name="Sistema.usuario1" data-source-line="3" id="ent0003"><rect fill="#F1F1F1" height="109.7813" rx="2.5" ry="2.5" style="stroke:#181818;stroke-width:0.5;" width="253.418" x="22.5" y="73.5"/><text fill="#000000" font-family="sans-serif" font-size="14" lengthAdjust="spacing" textLength="60.7373" x="118.8403" y="88.4951">usuario1</text><line style="stroke:#181818;stroke-width:0.5;" x1="23.5" x2="274.918" y1="93.7969" y2="93.7969"/><text fill="#000000" font-family="sans-serif" font-size="14" lengthAdjust="spacing" textLength="160.125" x="28.5" y="110.792">idUsuario = "USR-001"</text><text fill="#000000" font-family="sans-serif" font-size="14" lengthAdjust="spacing" textLength="201.4893" x="28.5" y="127.0889">nombreUsuario = "david.qa"</text><text fill="#000000" font-family="sans-serif" font-size="14" lengthAdjust="spacing" textLength="241.418" x="28.5" y="143.3857">email = "david.qa@example.com"</text><text fill="#000000" font-family="sans-serif" font-size="14" lengthAdjust="spacing" textLength="142.9668" x="28.5" y="159.6826">rol = "Ingeniero QA"</text><text fill="#000000" font-family="sans-serif" font-size="14" lengthAdjust="spacing" textLength="211.7842" x="28.5" y="175.9795">fechaRegistro = "2026-04-07"</text></g><g class="entity" data-qualified-name="Sistema.sesion1" data-source-line="11" id="ent0004"><rect fill="#F1F1F1" height="174.9688" rx="2.5" ry="2.5" style="stroke:#181818;stroke-width:0.5;" width="457.0332" x="408.5" y="41"/><text fill="#000000" font-family="sans-serif" font-size="14" lengthAdjust="spacing" textLength="53.4365" x="610.2983" y="55.9951">sesion1</text><line style="stroke:#181818;stroke-width:0.5;" x1="409.5" x2="864.5332" y1="61.2969" y2="61.2969"/><text fill="#000000" font-family="sans-serif" font-size="14" lengthAdjust="spacing" textLength="150.8008" x="414.5" y="78.292">idSesion = "SES-001"</text><text fill="#000000" font-family="sans-serif" font-size="14" lengthAdjust="spacing" textLength="287.6016" x="414.5" y="94.5889">nombre = "Sesion gestor de incidencias"</text><text fill="#000000" font-family="sans-serif" font-size="14" lengthAdjust="spacing" textLength="445.0332" x="414.5" y="110.8857">descripcion = "Trabajo de extraccion y generacion de pruebas"</text><text fill="#000000" font-family="sans-serif" font-size="14" lengthAdjust="spacing" textLength="274.8594" x="414.5" y="127.1826">projectName = "Gestor de incidencias"</text><text fill="#000000" font-family="sans-serif" font-size="14" lengthAdjust="spacing" textLength="178.4043" x="414.5" y="143.4795">modoTrabajo = "manual"</text><text fill="#000000" font-family="sans-serif" font-size="14" lengthAdjust="spacing" textLength="123.457" x="414.5" y="159.7764">estado = "activa"</text><text fill="#000000" font-family="sans-serif" font-size="14" lengthAdjust="spacing" textLength="106.9688" x="414.5" y="176.0732">pasoActual = 4</text><text fill="#000000" font-family="sans-serif" font-size="14" lengthAdjust="spacing" textLength="215.3115" x="414.5" y="192.3701">fechaCreacion = "2026-04-07"</text><text fill="#000000" font-family="sans-serif" font-size="14" lengthAdjust="spacing" textLength="246.5107" x="414.5" y="208.667">fechaActualizacion = "2026-04-08"</text></g><g class="entity" data-qualified-name="Sistema.doc1" data-source-line="23" id="ent0005"><rect fill="#F1F1F1" height="109.7813" rx="2.5" ry="2.5" style="stroke:#181818;stroke-width:0.5;" width="444.1543" x="33" y="578"/><text fill="#000000" font-family="sans-serif" font-size="14" lengthAdjust="spacing" textLength="34.0566" x="238.0488" y="592.9951">doc1</text><line style="stroke:#181818;stroke-width:0.5;" x1="34" x2="476.1543" y1="598.2969" y2="598.2969"/><text fill="#000000" font-family="sans-serif" font-size="14" lengthAdjust="spacing" textLength="219.7686" x="39" y="615.292">idDocumentacion = "DOC-001"</text><text fill="#000000" font-family="sans-serif" font-size="14" lengthAdjust="spacing" textLength="145.7969" x="39" y="631.5889">tipoEntrada = "DDS"</text><text fill="#000000" font-family="sans-serif" font-size="14" lengthAdjust="spacing" textLength="432.1543" x="39" y="647.8857">contenido = "Documento funcional del gestor de incidencias"</text><text fill="#000000" font-family="sans-serif" font-size="14" lengthAdjust="spacing" textLength="255.9785" x="39" y="664.1826">referencia = "Gestor de incidencias"</text><text fill="#000000" font-family="sans-serif" font-size="14" lengthAdjust="spacing" textLength="211.7842" x="39" y="680.4795">fechaRegistro = "2026-04-07"</text></g><g class="entity" data-qualified-name="Sistema.uc1" data-source-line="31" id="ent0006"><rect fill="#F1F1F1" height="126.0781" rx="2.5" ry="2.5" style="stroke:#181818;stroke-width:0.5;" width="452.7471" x="289.5" y="765"/><text fill="#000000" font-family="sans-serif" font-size="14" lengthAdjust="spacing" textLength="25.4775" x="503.1348" y="779.9951">uc1</text><line style="stroke:#181818;stroke-width:0.5;" x1="290.5" x2="741.2471" y1="785.2969" y2="785.2969"/><text fill="#000000" font-family="sans-serif" font-size="14" lengthAdjust="spacing" textLength="118.1045" x="295.5" y="802.292">idUC = "UC-001"</text><text fill="#000000" font-family="sans-serif" font-size="14" lengthAdjust="spacing" textLength="201.6602" x="295.5" y="818.5889">nombre = "Crear incidencia"</text><text fill="#000000" font-family="sans-serif" font-size="14" lengthAdjust="spacing" textLength="395.0762" x="295.5" y="834.8857">descripcion = "El usuario registra una nueva incidencia"</text><text fill="#000000" font-family="sans-serif" font-size="14" lengthAdjust="spacing" textLength="440.7471" x="295.5" y="851.1826">trazabilidadLiteral = "Se debe permitir dar de alta incidencias"</text><text fill="#000000" font-family="sans-serif" font-size="14" lengthAdjust="spacing" textLength="140.499" x="295.5" y="867.4795">estado = "validado"</text><text fill="#000000" font-family="sans-serif" font-size="14" lengthAdjust="spacing" textLength="80.8145" x="295.5" y="883.7764">version = 1</text></g><g class="entity" data-qualified-name="Sistema.rf1" data-source-line="40" id="ent0007"><rect fill="#F1F1F1" height="109.7813" rx="2.5" ry="2.5" style="stroke:#181818;stroke-width:0.5;" width="478.9834" x="425.5" y="968"/><text fill="#000000" font-family="sans-serif" font-size="14" lengthAdjust="spacing" textLength="19.5918" x="655.1958" y="982.9951">rf1</text><line style="stroke:#181818;stroke-width:0.5;" x1="426.5" x2="903.4834" y1="988.2969" y2="988.2969"/><text fill="#000000" font-family="sans-serif" font-size="14" lengthAdjust="spacing" textLength="113.6201" x="431.5" y="1005.292">idRF = "RF-001"</text><text fill="#000000" font-family="sans-serif" font-size="14" lengthAdjust="spacing" textLength="432.4619" x="431.5" y="1021.5889">descripcion = "El sistema debe permitir registrar incidencias"</text><text fill="#000000" font-family="sans-serif" font-size="14" lengthAdjust="spacing" textLength="466.9834" x="431.5" y="1037.8857">trazabilidadLiteral = "Registrar incidencia con titulo y descripcion"</text><text fill="#000000" font-family="sans-serif" font-size="14" lengthAdjust="spacing" textLength="140.499" x="431.5" y="1054.1826">estado = "validado"</text><text fill="#000000" font-family="sans-serif" font-size="14" lengthAdjust="spacing" textLength="80.8145" x="431.5" y="1070.4795">version = 1</text></g><g class="entity" data-qualified-name="Sistema.eg1" data-source-line="48" id="ent0008"><rect fill="#F1F1F1" height="109.7813" rx="2.5" ry="2.5" style="stroke:#181818;stroke-width:0.5;" width="476.6113" x="554.5" y="578"/><text fill="#000000" font-family="sans-serif" font-size="14" lengthAdjust="spacing" textLength="26.4072" x="779.6021" y="592.9951">eg1</text><line style="stroke:#181818;stroke-width:0.5;" x1="555.5" x2="1030.1113" y1="598.2969" y2="598.2969"/><text fill="#000000" font-family="sans-serif" font-size="14" lengthAdjust="spacing" textLength="165.8672" x="560.5" y="615.292">idEscenario = "EG-001"</text><text fill="#000000" font-family="sans-serif" font-size="14" lengthAdjust="spacing" textLength="241.0898" x="560.5" y="631.5889">titulo = "Alta valida de incidencia"</text><text fill="#000000" font-family="sans-serif" font-size="14" lengthAdjust="spacing" textLength="361.2725" x="560.5" y="647.8857">given = "Dado que el usuario accede al formulario"</text><text fill="#000000" font-family="sans-serif" font-size="14" lengthAdjust="spacing" textLength="387.6865" x="560.5" y="664.1826">when = "Cuando introduce titulo y descripcion validos"</text><text fill="#000000" font-family="sans-serif" font-size="14" lengthAdjust="spacing" textLength="464.6113" x="560.5" y="680.4795">then = "Entonces el sistema registra la incidencia correctamente"</text></g><g class="entity" data-qualified-name="Sistema.borrador1" data-source-line="56" id="ent0009"><rect fill="#F1F1F1" height="207.5625" rx="2.5" ry="2.5" style="stroke:#181818;stroke-width:0.5;" width="403.8359" x="667" y="293"/><text fill="#000000" font-family="sans-serif" font-size="14" lengthAdjust="spacing" textLength="69.6582" x="834.0889" y="307.9951">borrador1</text><line style="stroke:#181818;stroke-width:0.5;" x1="668" x2="1069.8359" y1="313.2969" y2="313.2969"/><text fill="#000000" font-family="sans-serif" font-size="14" lengthAdjust="spacing" textLength="169.8799" x="673" y="330.292">idBorrador = "BOR-001"</text><text fill="#000000" font-family="sans-serif" font-size="14" lengthAdjust="spacing" textLength="305.7373" x="673" y="346.5889">resumen = "Validar creacion de incidencia"</text><text fill="#000000" font-family="sans-serif" font-size="14" lengthAdjust="spacing" textLength="154.7383" x="673" y="362.8857">categoria = "General"</text><text fill="#000000" font-family="sans-serif" font-size="14" lengthAdjust="spacing" textLength="295.374" x="673" y="379.1826">gherkinText = "Given ... When ... Then ..."</text><text fill="#000000" font-family="sans-serif" font-size="14" lengthAdjust="spacing" textLength="147.6426" x="673" y="395.4795">estado = "aprobado"</text><text fill="#000000" font-family="sans-serif" font-size="14" lengthAdjust="spacing" textLength="124.9199" x="673" y="411.7764">versionActual = 2</text><text fill="#000000" font-family="sans-serif" font-size="14" lengthAdjust="spacing" textLength="375.0947" x="673" y="428.0732">feedback = "[Anadir validacion del campo prioridad]"</text><text fill="#000000" font-family="sans-serif" font-size="14" lengthAdjust="spacing" textLength="215.3115" x="673" y="444.3701">fechaCreacion = "2026-04-07"</text><text fill="#000000" font-family="sans-serif" font-size="14" lengthAdjust="spacing" textLength="246.5107" x="673" y="460.667">fechaActualizacion = "2026-04-08"</text><text fill="#000000" font-family="sans-serif" font-size="14" lengthAdjust="spacing" textLength="274.8594" x="673" y="476.9639">projectName = "Gestor de incidencias"</text><text fill="#000000" font-family="sans-serif" font-size="14" lengthAdjust="spacing" textLength="391.8359" x="673" y="493.2607">sourceDocuments = "[DDS_Gestor_Incidencias_v1.pdf]"</text></g><g class="entity" data-qualified-name="Sistema.caso1" data-source-line="70" id="ent0010"><rect fill="#F1F1F1" height="126.0781" rx="2.5" ry="2.5" style="stroke:#181818;stroke-width:0.5;" width="351.3906" x="900.5" y="65.5"/><text fill="#000000" font-family="sans-serif" font-size="14" lengthAdjust="spacing" textLength="41.043" x="1055.6738" y="80.4951">caso1</text><line style="stroke:#181818;stroke-width:0.5;" x1="901.5" x2="1250.8906" y1="85.7969" y2="85.7969"/><text fill="#000000" font-family="sans-serif" font-size="14" lengthAdjust="spacing" textLength="130.4912" x="906.5" y="102.792">idCaso = "CP-001"</text><text fill="#000000" font-family="sans-serif" font-size="14" lengthAdjust="spacing" textLength="339.3906" x="906.5" y="119.0889">summary = "Comprobar creacion de incidencia"</text><text fill="#000000" font-family="sans-serif" font-size="14" lengthAdjust="spacing" textLength="247.8779" x="906.5" y="135.3857">texto = "Given ... When ... Then ..."</text><text fill="#000000" font-family="sans-serif" font-size="14" lengthAdjust="spacing" textLength="177.9873" x="906.5" y="151.6826">categoria = "Incidencias"</text><text fill="#000000" font-family="sans-serif" font-size="14" lengthAdjust="spacing" textLength="124.1406" x="906.5" y="167.9795">prioridad = "Alta"</text><text fill="#000000" font-family="sans-serif" font-size="14" lengthAdjust="spacing" textLength="211.4766" x="906.5" y="184.2764">estado = "registrado_en_kiwi"</text></g><g class="entity" data-qualified-name="kiwi1" data-source-line="79" id="ent0011"><rect fill="#F1F1F1" height="44.5938" rx="2.5" ry="2.5" style="stroke:#181818;stroke-width:0.5;" width="171.9951" x="1284" y="374.5"/><text fill="#000000" font-family="sans-serif" font-size="14" lengthAdjust="spacing" textLength="36.2441" x="1351.8755" y="389.4951">kiwi1</text><line style="stroke:#181818;stroke-width:0.5;" x1="1285" x2="1454.9951" y1="394.7969" y2="394.7969"/><text fill="#000000" font-family="sans-serif" font-size="14" lengthAdjust="spacing" textLength="159.9951" x="1290" y="411.792">nombre = "Kiwi TCMS"</text></g><!--link usuario1 to sesion1--><g class="link" data-entity-1="ent0003" data-entity-2="ent0004" data-link-type="dependency" data-source-line="83" id="lnk12"><path codeLine="83" d="M275.62,128.5 C316.29,128.5 356.67,128.5 402.33,128.5" fill="none" id="usuario1-to-sesion1" style="stroke:#181818;stroke-width:1;"/><polygon fill="#181818" points="408.33,128.5,399.33,124.5,403.33,128.5,399.33,132.5,408.33,128.5" style="stroke:#181818;stroke-width:1;"/><text fill="#000000" font-family="sans-serif" font-size="13" lengthAdjust="spacing" textLength="96.9922" x="294" y="121.5669">crea / gestiona</text></g><!--reverse link sesion1 to doc1--><g class="link" data-entity-1="ent0004" data-entity-2="ent0005" data-link-type="aggregation" data-source-line="84" id="lnk13"><path codeLine="84" d="M528.0227,224.0566 C516.8227,234.0666 514.58,236.2 504,246 C482.1,266.29 474.44,269.52 456,293 C382.8,386.24 316.62,508.54 281.48,577.86" fill="none" id="sesion1-backto-doc1" style="stroke:#181818;stroke-width:1;"/><polygon fill="none" points="536.97,216.06,529.8308,217.0759,528.0227,224.0566,535.1619,223.0407,536.97,216.06" style="stroke:#181818;stroke-width:1;"/><text fill="#000000" font-family="sans-serif" font-size="13" lengthAdjust="spacing" textLength="46.0205" x="457" y="401.5669">agrupa</text></g><!--reverse link sesion1 to uc1--><g class="link" data-entity-1="ent0004" data-entity-2="ent0006" data-link-type="aggregation" data-source-line="85" id="lnk14"><path codeLine="85" d="M587.1883,227.0761 C576.6483,251.3361 571.64,267.15 566,293 C529.34,461.08 519.55,664.68 516.94,764.99" fill="none" id="sesion1-backto-uc1" style="stroke:#181818;stroke-width:1;"/><polygon fill="none" points="591.97,216.07,585.9104,219.9792,587.1883,227.0761,593.2478,223.167,591.97,216.07" style="stroke:#181818;stroke-width:1;"/><text fill="#000000" font-family="sans-serif" font-size="13" lengthAdjust="spacing" textLength="46.0205" x="531" y="544.0669">agrupa</text></g><!--reverse link sesion1 to rf1--><g class="link" data-entity-1="ent0004" data-entity-2="ent0007" data-link-type="aggregation" data-source-line="86" id="lnk15"><path codeLine="86" d="M876.9686,214.9126 C988.0086,254.6426 1086.88,290.48 1089,293 C1118.88,328.59 1107,349.53 1107,396 C1107,396 1107,396 1107,829 C1107,930.11 1008.66,978.77 904.76,1001.97" fill="none" id="sesion1-backto-rf1" style="stroke:#181818;stroke-width:1;"/><polygon fill="none" points="865.67,210.87,869.9717,216.6575,876.9686,214.9126,872.6668,209.1251,865.67,210.87" style="stroke:#181818;stroke-width:1;"/><text fill="#000000" font-family="sans-serif" font-size="13" lengthAdjust="spacing" textLength="46.0205" x="1108" y="637.5669">agrupa</text></g><!--reverse link sesion1 to eg1--><g class="link" data-entity-1="ent0004" data-entity-2="ent0008" data-link-type="aggregation" data-source-line="87" id="lnk16"><path codeLine="87" d="M599.3331,227.6824 C574.1831,306.5224 555.28,412.3 602,501 C618.68,532.66 646.84,558.14 676.5,577.91" fill="none" id="sesion1-backto-eg1" style="stroke:#181818;stroke-width:1;"/><polygon fill="none" points="602.98,216.25,597.3457,220.7506,599.3331,227.6824,604.9673,223.1818,602.98,216.25" style="stroke:#181818;stroke-width:1;"/><text fill="#000000" font-family="sans-serif" font-size="13" lengthAdjust="spacing" textLength="46.0205" x="603" y="401.5669">agrupa</text></g><!--reverse link sesion1 to borrador1--><g class="link" data-entity-1="ent0004" data-entity-2="ent0009" data-link-type="aggregation" data-source-line="88" id="lnk17"><path codeLine="88" d="M720.2008,225.0695 C741.5108,249.5395 757.02,267.37 779.09,292.72" fill="none" id="sesion1-backto-borrador1" style="stroke:#181818;stroke-width:1;"/><polygon fill="none" points="712.32,216.02,713.2439,223.1717,720.2008,225.0695,719.2769,217.9178,712.32,216.02" style="stroke:#181818;stroke-width:1;"/><text fill="#000000" font-family="sans-serif" font-size="13" lengthAdjust="spacing" textLength="56.2847" x="754" y="259.0669">contiene</text></g><!--reverse link doc1 to uc1--><g class="link" data-entity-1="ent0005" data-entity-2="ent0006" data-link-type="aggregation" data-source-line="89" id="lnk18"><path codeLine="89" d="M337.6989,695.1543 C369.9689,719.0143 398.45,740.08 431.9,764.81" fill="none" id="doc1-backto-uc1" style="stroke:#181818;stroke-width:1;"/><polygon fill="none" points="328.05,688.02,330.4964,694.8035,337.6989,695.1543,335.2526,688.3708,328.05,688.02" style="stroke:#181818;stroke-width:1;"/></g><!--reverse link doc1 to rf1--><g class="link" data-entity-1="ent0005" data-entity-2="ent0007" data-link-type="aggregation" data-source-line="90" id="lnk19"><path codeLine="90" d="M240.4732,699.8359 C230.7232,756.4459 227.39,833.22 272,891 C309.8,939.95 366.56,970.8 425.27,990.18" fill="none" id="doc1-backto-rf1" style="stroke:#181818;stroke-width:1;"/><polygon fill="none" points="242.51,688.01,237.5496,693.244,240.4732,699.8359,245.4336,694.6019,242.51,688.01" style="stroke:#181818;stroke-width:1;"/></g><!--link uc1 to rf1--><g class="link" data-entity-1="ent0006" data-entity-2="ent0007" data-link-type="association" data-source-line="91" id="lnk20"><path codeLine="91" d="M563.96,891.13 C583.02,915.81 604.74,943.95 623.15,967.79" fill="none" id="uc1-rf1" style="stroke:#181818;stroke-width:1;"/><text fill="#000000" font-family="sans-serif" font-size="13" lengthAdjust="spacing" textLength="33.1982" x="600" y="934.0669">traza</text></g><!--link eg1 to uc1--><g class="link" data-entity-1="ent0008" data-entity-2="ent0006" data-link-type="dependency" data-source-line="92" id="lnk21"><path codeLine="92" d="M715.47,688.02 C681.22,711.88 645.6732,736.6504 610.1732,761.3804" fill="none" id="eg1-to-uc1" style="stroke:#181818;stroke-width:1;"/><polygon fill="#181818" points="605.25,764.81,614.9212,762.9477,609.3527,761.952,610.3484,756.3835,605.25,764.81" style="stroke:#181818;stroke-width:1;"/><text fill="#000000" font-family="sans-serif" font-size="13" lengthAdjust="spacing" textLength="82.8242" x="672" y="731.0669">cubre / traza</text></g><!--link eg1 to rf1--><g class="link" data-entity-1="ent0008" data-entity-2="ent0007" data-link-type="dependency" data-source-line="93" id="lnk22"><path codeLine="93" d="M793.73,688.09 C792.71,741.48 786.37,824.51 760,891 C749.07,918.55 734.7145,940.9123 717.2645,963.2423" fill="none" id="eg1-to-rf1" style="stroke:#181818;stroke-width:1;"/><polygon fill="#181818" points="713.57,967.97,722.2635,963.3415,716.6487,964.0303,715.9599,958.4155,713.57,967.97" style="stroke:#181818;stroke-width:1;"/><text fill="#000000" font-family="sans-serif" font-size="13" lengthAdjust="spacing" textLength="82.8242" x="789" y="832.5669">cubre / traza</text></g><!--reverse link borrador1 to eg1--><g class="link" data-entity-1="ent0009" data-entity-2="ent0008" data-link-type="aggregation" data-source-line="94" id="lnk23"><path codeLine="94" d="M831.7321,512.7328 C823.1421,539.1728 817.96,555.15 810.54,577.99" fill="none" id="borrador1-backto-eg1" style="stroke:#181818;stroke-width:1;"/><polygon fill="none" points="835.44,501.32,829.7818,505.7904,831.7321,512.7328,837.3903,508.2623,835.44,501.32" style="stroke:#181818;stroke-width:1;"/><text fill="#000000" font-family="sans-serif" font-size="13" lengthAdjust="spacing" textLength="56.2847" x="825" y="544.0669">contiene</text></g><!--link caso1 to borrador1--><g class="link" data-entity-1="ent0010" data-entity-2="ent0009" data-link-type="dependency" data-source-line="95" id="lnk24"><path codeLine="95" d="M1027.73,191.65 C1004.37,221.72 979.3906,253.8815 952.8806,288.0115" fill="none" id="caso1-to-borrador1" style="stroke:#181818;stroke-width:1;"/><polygon fill="#181818" points="949.2,292.75,957.8799,288.096,952.2671,288.8012,951.5618,283.1885,949.2,292.75" style="stroke:#181818;stroke-width:1;"/><text fill="#000000" font-family="sans-serif" font-size="13" lengthAdjust="spacing" textLength="61.2485" x="985" y="259.0669">deriva de</text></g><!--link caso1 to kiwi1--><g class="link" data-entity-1="ent0010" data-entity-2="ent0011" data-link-type="dependency" data-source-line="96" id="lnk25"><path codeLine="96" d="M1152.05,191.72 C1187.85,221.65 1230.77,258.46 1268,293 C1297.15,320.04 1325.0277,348.5993 1345.2777,369.8193" fill="none" id="caso1-to-kiwi1" style="stroke:#181818;stroke-width:1;"/><polygon fill="#181818" points="1349.42,374.16,1346.1004,364.8875,1345.9681,370.5428,1340.3128,370.4105,1349.42,374.16" style="stroke:#181818;stroke-width:1;"/><text fill="#000000" font-family="sans-serif" font-size="13" lengthAdjust="spacing" textLength="55.7324" x="1233" y="259.0669">registrar</text></g><?plantuml-src hLLRRnCv57xFhx3odf1MQ1TLOaL90wgMNI1fuG6Xw8nzCZMTiGVFE5nM_7VEiSTpILDKf7rfutF_ldEP2kGjv2Yc6rqtMC9K_3UPsEmJoaRuseFJzeH4GcXr7P_YgPXURzQpnU9aId9ZoypXGATWhzNyCx2I0kfYA7o6Nw6i2fnBMxA1iq5zQN8q6fqLRyzPl4Dv0slCgIONWfukJl-OBHxF5dzE9p-w0ckijJMflaruiVLcjHcN5uHHdMFTM2SK2csaLaX_e6PBXRLqkf9jZ2i76NooR8XV6mSoABwHlq5wyODKbVEOHV_AMIxgNoX3kfVtvIcjiYausPLWF1I1hBe15MGW6xqF15PGstFPa0N97oTcbWuXrJbafbL71_tzhisJ8NlAoaJTXPM-HDDq7XUlbud1HbTsPOW11K5piM6fjAQXbiLwaxiLEsyu19MhiBYVQuSxTE7vIweUE0Q-mt6z3DEvlDjzfimDuX_f-Af84q_rXPmWl05XFExXm9Lqto7JXLQWNkc69gA8CqP1CneBTALkD662W0kA1Wx1zUtUGuXZMRf7rqxnoG2XsoM4wnViiNwH4Dx5KCT5FYWa8NA7PTo3P7t4dfjEuz3umj8Y33B_BXpC4vnLBT6aox5wsSzSI4AoSsOkHXmF29lbUeznN3drPq-hslUGDXO3zM9dNUaB5hBJbvlei_HWo4lJQ5lb9Hv55bFRo5JhICjWZSIQaoMoku4fO4oOSmGOU3bmEB8PAQXcbtXuthuv_lFNtN5rMFDYiVHTuC09cNR_3XiI6iojIpl5PohSbVm6tQqsLtJ6WYQGDf_FnVkRziTL--FW2j55oyPzx4xHQTXEL1bzFjZsmxa1HMCMEzNMLr19PMNfCcegYqRYu_J_k60FFxMrzKvYkavrA9JkrpOwR2zxw-t-P5wftSTXZoJTtjIV9VqEG_CcjOOQKuBx5eIs35JzgZaDiMyVGF-eYPTZE1sFQJ76_KepgEmMpVPMVz6CvaU2mu88fx-AVvDCN2t_sGJStVT-zbVtQJqBcCIZSClvia-InivcyHDo9Y1tlXfh_7qAFcL75NmKZYhwNJaBdnrDepq9cTj4_OE2JpXpboTSjmc7dX6eM9JqZFxHWIxQZtLzvhx0he8u7kmwB52Xeqyt_Hle8_Dd_Gt-2G00?></g></svg>