<?plantuml 1.2026.2?><svg xmlns="http://www.w3.org/2000/svg" xmlns:xlink="http://www.w3.org/1999/xlink" contentStyleType="text/css" data-diagram-type="CLASS" height="1198px" preserveAspectRatio="none" style="width:856px;height:1198px;background:#FFFFFF;" version="1.1" viewBox="0 0 856 1198" width="856px" zoomAndPan="magnify"><defs/><g><!--cluster Sistema--><g class="cluster" data-qualified-name="Sistema" data-source-line="1" id="ent0002"><path d="M8.5,6 L72.9375,6 A3.75,3.75 0 0 1 75.4375,8.5 L82.4375,28.2969 L731.5,28.2969 A2.5,2.5 0 0 1 734,30.7969 L734,1188.5 A2.5,2.5 0 0 1 731.5,1191 L8.5,1191 A2.5,2.5 0 0 1 6,1188.5 L6,8.5 A2.5,2.5 0 0 1 8.5,6" fill="none" style="stroke:#000000;stroke-width:1.5;"/><line style="stroke:#000000;stroke-width:1.5;" x1="6" x2="82.4375" y1="28.2969" y2="28.2969"/><text fill="#000000" font-family="sans-serif" font-size="14" font-weight="bold" lengthAdjust="spacing" textLength="63.4375" x="10" y="20.9951">Sistema</text></g><!--class Usuario--><g class="entity" data-qualified-name="Sistema.Usuario" data-source-line="3" id="ent0003"><rect fill="#F1F1F1" height="129.4844" rx="2.5" ry="2.5" style="stroke:#181818;stroke-width:0.5;" width="184.4844" x="22" y="74"/><ellipse cx="83.3901" cy="90" fill="#ADD1B2" rx="11" ry="11" style="stroke:#181818;stroke-width:1;"/><path d="M86.3589,95.6406 Q85.7808,95.9375 85.1401,96.0781 Q84.4995,96.2344 83.7964,96.2344 Q81.2964,96.2344 79.9683,94.5938 Q78.6558,92.9375 78.6558,89.8125 Q78.6558,86.6875 79.9683,85.0313 Q81.2964,83.375 83.7964,83.375 Q84.4995,83.375 85.1401,83.5313 Q85.7964,83.6875 86.3589,83.9844 L86.3589,86.7031 Q85.7339,86.125 85.1401,85.8594 Q84.5464,85.5781 83.9214,85.5781 Q82.5776,85.5781 81.8901,86.6563 Q81.2026,87.7188 81.2026,89.8125 Q81.2026,91.9063 81.8901,92.9844 Q82.5776,94.0469 83.9214,94.0469 Q84.5464,94.0469 85.1401,93.7813 Q85.7339,93.5 86.3589,92.9219 L86.3589,95.6406 Z " fill="#000000"/><text fill="#000000" font-family="sans-serif" font-size="14" lengthAdjust="spacing" textLength="53.2041" x="103.8901" y="94.8467">Usuario</text><line style="stroke:#181818;stroke-width:0.5;" x1="23" x2="205.4844" y1="106" y2="106"/><g data-visibility-modifier="PUBLIC_FIELD"><ellipse cx="33" cy="119.6484" fill="none" rx="3" ry="3" style="stroke:#038048;stroke-width:1;"/></g><text fill="#000000" font-family="sans-serif" font-size="14" lengthAdjust="spacing" textLength="116.9287" x="42" y="122.9951">idUsuario: String</text><g data-visibility-modifier="PUBLIC_FIELD"><ellipse cx="33" cy="135.9453" fill="none" rx="3" ry="3" style="stroke:#038048;stroke-width:1;"/></g><text fill="#000000" font-family="sans-serif" font-size="14" lengthAdjust="spacing" textLength="158.4844" x="42" y="139.292">nombreUsuario: String</text><g data-visibility-modifier="PUBLIC_FIELD"><ellipse cx="33" cy="152.2422" fill="none" rx="3" ry="3" style="stroke:#038048;stroke-width:1;"/></g><text fill="#000000" font-family="sans-serif" font-size="14" lengthAdjust="spacing" textLength="89.5576" x="42" y="155.5889">email: String</text><g data-visibility-modifier="PUBLIC_FIELD"><ellipse cx="33" cy="168.5391" fill="none" rx="3" ry="3" style="stroke:#038048;stroke-width:1;"/></g><text fill="#000000" font-family="sans-serif" font-size="14" lengthAdjust="spacing" textLength="69.1592" x="42" y="171.8857">rol: String</text><g data-visibility-modifier="PUBLIC_FIELD"><ellipse cx="33" cy="184.8359" fill="none" rx="3" ry="3" style="stroke:#038048;stroke-width:1;"/></g><text fill="#000000" font-family="sans-serif" font-size="14" lengthAdjust="spacing" textLength="139.542" x="42" y="188.1826">fechaRegistro: Date</text><line style="stroke:#181818;stroke-width:0.5;" x1="23" x2="205.4844" y1="195.4844" y2="195.4844"/></g><!--class SesionTrabajo--><g class="entity" data-qualified-name="Sistema.SesionTrabajo" data-source-line="11" id="ent0004"><rect fill="#F1F1F1" height="194.6719" rx="2.5" ry="2.5" style="stroke:#181818;stroke-width:0.5;" width="200.2686" x="339" y="41"/><ellipse cx="385.4194" cy="57" fill="#ADD1B2" rx="11" ry="11" style="stroke:#181818;stroke-width:1;"/><path d="M388.3882,62.6406 Q387.8101,62.9375 387.1694,63.0781 Q386.5288,63.2344 385.8257,63.2344 Q383.3257,63.2344 381.9976,61.5938 Q380.6851,59.9375 380.6851,56.8125 Q380.6851,53.6875 381.9976,52.0313 Q383.3257,50.375 385.8257,50.375 Q386.5288,50.375 387.1694,50.5313 Q387.8257,50.6875 388.3882,50.9844 L388.3882,53.7031 Q387.7632,53.125 387.1694,52.8594 Q386.5757,52.5781 385.9507,52.5781 Q384.6069,52.5781 383.9194,53.6563 Q383.2319,54.7188 383.2319,56.8125 Q383.2319,58.9063 383.9194,59.9844 Q384.6069,61.0469 385.9507,61.0469 Q386.5757,61.0469 387.1694,60.7813 Q387.7632,60.5 388.3882,59.9219 L388.3882,62.6406 Z " fill="#000000"/><text fill="#000000" font-family="sans-serif" font-size="14" lengthAdjust="spacing" textLength="98.9297" x="405.9194" y="61.8467">SesionTrabajo</text><line style="stroke:#181818;stroke-width:0.5;" x1="340" x2="538.2686" y1="73" y2="73"/><g data-visibility-modifier="PUBLIC_FIELD"><ellipse cx="350" cy="86.6484" fill="none" rx="3" ry="3" style="stroke:#038048;stroke-width:1;"/></g><text fill="#000000" font-family="sans-serif" font-size="14" lengthAdjust="spacing" textLength="109.8467" x="359" y="89.9951">idSesion: String</text><g data-visibility-modifier="PUBLIC_FIELD"><ellipse cx="350" cy="102.9453" fill="none" rx="3" ry="3" style="stroke:#038048;stroke-width:1;"/></g><text fill="#000000" font-family="sans-serif" font-size="14" lengthAdjust="spacing" textLength="105.2803" x="359" y="106.292">nombre: String</text><g data-visibility-modifier="PUBLIC_FIELD"><ellipse cx="350" cy="119.2422" fill="none" rx="3" ry="3" style="stroke:#038048;stroke-width:1;"/></g><text fill="#000000" font-family="sans-serif" font-size="14" lengthAdjust="spacing" textLength="120.1553" x="359" y="122.5889">descripcion: Text</text><g data-visibility-modifier="PUBLIC_FIELD"><ellipse cx="350" cy="135.5391" fill="none" rx="3" ry="3" style="stroke:#038048;stroke-width:1;"/></g><text fill="#000000" font-family="sans-serif" font-size="14" lengthAdjust="spacing" textLength="141.1484" x="359" y="138.8857">projectName: String</text><g data-visibility-modifier="PUBLIC_FIELD"><ellipse cx="350" cy="151.8359" fill="none" rx="3" ry="3" style="stroke:#038048;stroke-width:1;"/></g><text fill="#000000" font-family="sans-serif" font-size="14" lengthAdjust="spacing" textLength="143.4111" x="359" y="155.1826">modoTrabajo: String</text><g data-visibility-modifier="PUBLIC_FIELD"><ellipse cx="350" cy="168.1328" fill="none" rx="3" ry="3" style="stroke:#038048;stroke-width:1;"/></g><text fill="#000000" font-family="sans-serif" font-size="14" lengthAdjust="spacing" textLength="98.376" x="359" y="171.4795">estado: String</text><g data-visibility-modifier="PUBLIC_FIELD"><ellipse cx="350" cy="184.4297" fill="none" rx="3" ry="3" style="stroke:#038048;stroke-width:1;"/></g><text fill="#000000" font-family="sans-serif" font-size="14" lengthAdjust="spacing" textLength="136.958" x="359" y="187.7764">pasoActual: Integer</text><g data-visibility-modifier="PUBLIC_FIELD"><ellipse cx="350" cy="200.7266" fill="none" rx="3" ry="3" style="stroke:#038048;stroke-width:1;"/></g><text fill="#000000" font-family="sans-serif" font-size="14" lengthAdjust="spacing" textLength="143.0693" x="359" y="204.0732">fechaCreacion: Date</text><g data-visibility-modifier="PUBLIC_FIELD"><ellipse cx="350" cy="217.0234" fill="none" rx="3" ry="3" style="stroke:#038048;stroke-width:1;"/></g><text fill="#000000" font-family="sans-serif" font-size="14" lengthAdjust="spacing" textLength="174.2686" x="359" y="220.3701">fechaActualizacion: Date</text><line style="stroke:#181818;stroke-width:0.5;" x1="340" x2="538.2686" y1="227.6719" y2="227.6719"/></g><!--class Documentacion--><g class="entity" data-qualified-name="Sistema.Documentacion" data-source-line="23" id="ent0005"><rect fill="#F1F1F1" height="129.4844" rx="2.5" ry="2.5" style="stroke:#181818;stroke-width:0.5;" width="199.8584" x="22" y="617"/><ellipse cx="62.9761" cy="633" fill="#ADD1B2" rx="11" ry="11" style="stroke:#181818;stroke-width:1;"/><path d="M65.9448,638.6406 Q65.3667,638.9375 64.7261,639.0781 Q64.0854,639.2344 63.3823,639.2344 Q60.8823,639.2344 59.5542,637.5938 Q58.2417,635.9375 58.2417,632.8125 Q58.2417,629.6875 59.5542,628.0313 Q60.8823,626.375 63.3823,626.375 Q64.0854,626.375 64.7261,626.5313 Q65.3823,626.6875 65.9448,626.9844 L65.9448,629.7031 Q65.3198,629.125 64.7261,628.8594 Q64.1323,628.5781 63.5073,628.5781 Q62.1636,628.5781 61.4761,629.6563 Q60.7886,630.7188 60.7886,632.8125 Q60.7886,634.9063 61.4761,635.9844 Q62.1636,637.0469 63.5073,637.0469 Q64.1323,637.0469 64.7261,636.7813 Q65.3198,636.5 65.9448,635.9219 L65.9448,638.6406 Z " fill="#000000"/><text fill="#000000" font-family="sans-serif" font-size="14" lengthAdjust="spacing" textLength="110.1338" x="82.7485" y="637.8467">Documentacion</text><line style="stroke:#181818;stroke-width:0.5;" x1="23" x2="220.8584" y1="649" y2="649"/><g data-visibility-modifier="PUBLIC_FIELD"><ellipse cx="33" cy="662.6484" fill="none" rx="3" ry="3" style="stroke:#038048;stroke-width:1;"/></g><text fill="#000000" font-family="sans-serif" font-size="14" lengthAdjust="spacing" textLength="173.8584" x="42" y="665.9951">idDocumentacion: String</text><g data-visibility-modifier="PUBLIC_FIELD"><ellipse cx="33" cy="678.9453" fill="none" rx="3" ry="3" style="stroke:#038048;stroke-width:1;"/></g><text fill="#000000" font-family="sans-serif" font-size="14" lengthAdjust="spacing" textLength="132.7881" x="42" y="682.292">tipoEntrada: String</text><g data-visibility-modifier="PUBLIC_FIELD"><ellipse cx="33" cy="695.2422" fill="none" rx="3" ry="3" style="stroke:#038048;stroke-width:1;"/></g><text fill="#000000" font-family="sans-serif" font-size="14" lengthAdjust="spacing" textLength="109.5596" x="42" y="698.5889">contenido: Text</text><g data-visibility-modifier="PUBLIC_FIELD"><ellipse cx="33" cy="711.5391" fill="none" rx="3" ry="3" style="stroke:#038048;stroke-width:1;"/></g><text fill="#000000" font-family="sans-serif" font-size="14" lengthAdjust="spacing" textLength="122.2676" x="42" y="714.8857">referencia: String</text><g data-visibility-modifier="PUBLIC_FIELD"><ellipse cx="33" cy="727.8359" fill="none" rx="3" ry="3" style="stroke:#038048;stroke-width:1;"/></g><text fill="#000000" font-family="sans-serif" font-size="14" lengthAdjust="spacing" textLength="139.542" x="42" y="731.1826">fechaRegistro: Date</text><line style="stroke:#181818;stroke-width:0.5;" x1="23" x2="220.8584" y1="738.4844" y2="738.4844"/></g><!--class CasoDeUso--><g class="entity" data-qualified-name="Sistema.CasoDeUso" data-source-line="31" id="ent0006"><rect fill="#F1F1F1" height="145.7813" rx="2.5" ry="2.5" style="stroke:#181818;stroke-width:0.5;" width="192.7832" x="160.5" y="823"/><ellipse cx="212.7847" cy="839" fill="#ADD1B2" rx="11" ry="11" style="stroke:#181818;stroke-width:1;"/><path d="M215.7534,844.6406 Q215.1753,844.9375 214.5347,845.0781 Q213.894,845.2344 213.1909,845.2344 Q210.6909,845.2344 209.3628,843.5938 Q208.0503,841.9375 208.0503,838.8125 Q208.0503,835.6875 209.3628,834.0313 Q210.6909,832.375 213.1909,832.375 Q213.894,832.375 214.5347,832.5313 Q215.1909,832.6875 215.7534,832.9844 L215.7534,835.7031 Q215.1284,835.125 214.5347,834.8594 Q213.9409,834.5781 213.3159,834.5781 Q211.9722,834.5781 211.2847,835.6563 Q210.5972,836.7188 210.5972,838.8125 Q210.5972,840.9063 211.2847,841.9844 Q211.9722,843.0469 213.3159,843.0469 Q213.9409,843.0469 214.5347,842.7813 Q215.1284,842.5 215.7534,841.9219 L215.7534,844.6406 Z " fill="#000000"/><text fill="#000000" font-family="sans-serif" font-size="14" lengthAdjust="spacing" textLength="79.7139" x="233.2847" y="843.8467">CasoDeUso</text><line style="stroke:#181818;stroke-width:0.5;" x1="161.5" x2="352.2832" y1="855" y2="855"/><g data-visibility-modifier="PUBLIC_FIELD"><ellipse cx="171.5" cy="868.6484" fill="none" rx="3" ry="3" style="stroke:#038048;stroke-width:1;"/></g><text fill="#000000" font-family="sans-serif" font-size="14" lengthAdjust="spacing" textLength="83.7471" x="180.5" y="871.9951">idUC: String</text><g data-visibility-modifier="PUBLIC_FIELD"><ellipse cx="171.5" cy="884.9453" fill="none" rx="3" ry="3" style="stroke:#038048;stroke-width:1;"/></g><text fill="#000000" font-family="sans-serif" font-size="14" lengthAdjust="spacing" textLength="105.2803" x="180.5" y="888.292">nombre: String</text><g data-visibility-modifier="PUBLIC_FIELD"><ellipse cx="171.5" cy="901.2422" fill="none" rx="3" ry="3" style="stroke:#038048;stroke-width:1;"/></g><text fill="#000000" font-family="sans-serif" font-size="14" lengthAdjust="spacing" textLength="120.1553" x="180.5" y="904.5889">descripcion: Text</text><g data-visibility-modifier="PUBLIC_FIELD"><ellipse cx="171.5" cy="917.5391" fill="none" rx="3" ry="3" style="stroke:#038048;stroke-width:1;"/></g><text fill="#000000" font-family="sans-serif" font-size="14" lengthAdjust="spacing" textLength="166.7832" x="180.5" y="920.8857">trazabilidadLiteral: Text</text><g data-visibility-modifier="PUBLIC_FIELD"><ellipse cx="171.5" cy="933.8359" fill="none" rx="3" ry="3" style="stroke:#038048;stroke-width:1;"/></g><text fill="#000000" font-family="sans-serif" font-size="14" lengthAdjust="spacing" textLength="98.376" x="180.5" y="937.1826">estado: String</text><g data-visibility-modifier="PUBLIC_FIELD"><ellipse cx="171.5" cy="950.1328" fill="none" rx="3" ry="3" style="stroke:#038048;stroke-width:1;"/></g><text fill="#000000" font-family="sans-serif" font-size="14" lengthAdjust="spacing" textLength="110.8037" x="180.5" y="953.4795">version: Integer</text><line style="stroke:#181818;stroke-width:0.5;" x1="161.5" x2="352.2832" y1="960.7813" y2="960.7813"/></g><!--class RequisitoFuncional--><g class="entity" data-qualified-name="Sistema.RequisitoFuncional" data-source-line="40" id="ent0007"><rect fill="#F1F1F1" height="129.4844" rx="2.5" ry="2.5" style="stroke:#181818;stroke-width:0.5;" width="192.7832" x="244.5" y="1046"/><ellipse cx="272.2178" cy="1062" fill="#ADD1B2" rx="11" ry="11" style="stroke:#181818;stroke-width:1;"/><path d="M275.1865,1067.6406 Q274.6084,1067.9375 273.9678,1068.0781 Q273.3271,1068.2344 272.624,1068.2344 Q270.124,1068.2344 268.7959,1066.5938 Q267.4834,1064.9375 267.4834,1061.8125 Q267.4834,1058.6875 268.7959,1057.0313 Q270.124,1055.375 272.624,1055.375 Q273.3271,1055.375 273.9678,1055.5313 Q274.624,1055.6875 275.1865,1055.9844 L275.1865,1058.7031 Q274.5615,1058.125 273.9678,1057.8594 Q273.374,1057.5781 272.749,1057.5781 Q271.4053,1057.5781 270.7178,1058.6563 Q270.0303,1059.7188 270.0303,1061.8125 Q270.0303,1063.9063 270.7178,1064.9844 Q271.4053,1066.0469 272.749,1066.0469 Q273.374,1066.0469 273.9678,1065.7813 Q274.5615,1065.5 275.1865,1064.9219 L275.1865,1067.6406 Z " fill="#000000"/><text fill="#000000" font-family="sans-serif" font-size="14" lengthAdjust="spacing" textLength="132.5215" x="289.0439" y="1066.8467">RequisitoFuncional</text><line style="stroke:#181818;stroke-width:0.5;" x1="245.5" x2="436.2832" y1="1078" y2="1078"/><g data-visibility-modifier="PUBLIC_FIELD"><ellipse cx="255.5" cy="1091.6484" fill="none" rx="3" ry="3" style="stroke:#038048;stroke-width:1;"/></g><text fill="#000000" font-family="sans-serif" font-size="14" lengthAdjust="spacing" textLength="81.5049" x="264.5" y="1094.9951">idRF: String</text><g data-visibility-modifier="PUBLIC_FIELD"><ellipse cx="255.5" cy="1107.9453" fill="none" rx="3" ry="3" style="stroke:#038048;stroke-width:1;"/></g><text fill="#000000" font-family="sans-serif" font-size="14" lengthAdjust="spacing" textLength="120.1553" x="264.5" y="1111.292">descripcion: Text</text><g data-visibility-modifier="PUBLIC_FIELD"><ellipse cx="255.5" cy="1124.2422" fill="none" rx="3" ry="3" style="stroke:#038048;stroke-width:1;"/></g><text fill="#000000" font-family="sans-serif" font-size="14" lengthAdjust="spacing" textLength="166.7832" x="264.5" y="1127.5889">trazabilidadLiteral: Text</text><g data-visibility-modifier="PUBLIC_FIELD"><ellipse cx="255.5" cy="1140.5391" fill="none" rx="3" ry="3" style="stroke:#038048;stroke-width:1;"/></g><text fill="#000000" font-family="sans-serif" font-size="14" lengthAdjust="spacing" textLength="98.376" x="264.5" y="1143.8857">estado: String</text><g data-visibility-modifier="PUBLIC_FIELD"><ellipse cx="255.5" cy="1156.8359" fill="none" rx="3" ry="3" style="stroke:#038048;stroke-width:1;"/></g><text fill="#000000" font-family="sans-serif" font-size="14" lengthAdjust="spacing" textLength="110.8037" x="264.5" y="1160.1826">version: Integer</text><line style="stroke:#181818;stroke-width:0.5;" x1="245.5" x2="436.2832" y1="1167.4844" y2="1167.4844"/></g><!--class EscenarioGherkin--><g class="entity" data-qualified-name="Sistema.EscenarioGherkin" data-source-line="48" id="ent0008"><rect fill="#F1F1F1" height="129.4844" rx="2.5" ry="2.5" style="stroke:#181818;stroke-width:0.5;" width="157.8379" x="320" y="617"/><ellipse cx="336.2437" cy="633" fill="#ADD1B2" rx="11" ry="11" style="stroke:#181818;stroke-width:1;"/><path d="M339.2124,638.6406 Q338.6343,638.9375 337.9937,639.0781 Q337.353,639.2344 336.6499,639.2344 Q334.1499,639.2344 332.8218,637.5938 Q331.5093,635.9375 331.5093,632.8125 Q331.5093,629.6875 332.8218,628.0313 Q334.1499,626.375 336.6499,626.375 Q337.353,626.375 337.9937,626.5313 Q338.6499,626.6875 339.2124,626.9844 L339.2124,629.7031 Q338.5874,629.125 337.9937,628.8594 Q337.3999,628.5781 336.7749,628.5781 Q335.4312,628.5781 334.7437,629.6563 Q334.0562,630.7188 334.0562,632.8125 Q334.0562,634.9063 334.7437,635.9844 Q335.4312,637.0469 336.7749,637.0469 Q337.3999,637.0469 337.9937,636.7813 Q338.5874,636.5 339.2124,635.9219 L339.2124,638.6406 Z " fill="#000000"/><text fill="#000000" font-family="sans-serif" font-size="14" lengthAdjust="spacing" textLength="123.0742" x="350.52" y="637.8467">EscenarioGherkin</text><line style="stroke:#181818;stroke-width:0.5;" x1="321" x2="476.8379" y1="649" y2="649"/><g data-visibility-modifier="PUBLIC_FIELD"><ellipse cx="331" cy="662.6484" fill="none" rx="3" ry="3" style="stroke:#038048;stroke-width:1;"/></g><text fill="#000000" font-family="sans-serif" font-size="14" lengthAdjust="spacing" textLength="131.8379" x="340" y="665.9951">idEscenario: String</text><g data-visibility-modifier="PUBLIC_FIELD"><ellipse cx="331" cy="678.9453" fill="none" rx="3" ry="3" style="stroke:#038048;stroke-width:1;"/></g><text fill="#000000" font-family="sans-serif" font-size="14" lengthAdjust="spacing" textLength="87.1445" x="340" y="682.292">titulo: String</text><g data-visibility-modifier="PUBLIC_FIELD"><ellipse cx="331" cy="695.2422" fill="none" rx="3" ry="3" style="stroke:#038048;stroke-width:1;"/></g><text fill="#000000" font-family="sans-serif" font-size="14" lengthAdjust="spacing" textLength="78.6543" x="340" y="698.5889">given: Text</text><g data-visibility-modifier="PUBLIC_FIELD"><ellipse cx="331" cy="711.5391" fill="none" rx="3" ry="3" style="stroke:#038048;stroke-width:1;"/></g><text fill="#000000" font-family="sans-serif" font-size="14" lengthAdjust="spacing" textLength="77.916" x="340" y="714.8857">when: Text</text><g data-visibility-modifier="PUBLIC_FIELD"><ellipse cx="331" cy="727.8359" fill="none" rx="3" ry="3" style="stroke:#038048;stroke-width:1;"/></g><text fill="#000000" font-family="sans-serif" font-size="14" lengthAdjust="spacing" textLength="71.9551" x="340" y="731.1826">then: Text</text><line style="stroke:#181818;stroke-width:0.5;" x1="321" x2="476.8379" y1="738.4844" y2="738.4844"/></g><!--class Borrador--><g class="entity" data-qualified-name="Sistema.Borrador" data-source-line="56" id="ent0009"><rect fill="#F1F1F1" height="227.2656" rx="2.5" ry="2.5" style="stroke:#181818;stroke-width:0.5;" width="200.2686" x="412" y="313"/><ellipse cx="477.1499" cy="329" fill="#ADD1B2" rx="11" ry="11" style="stroke:#181818;stroke-width:1;"/><path d="M480.1187,334.6406 Q479.5405,334.9375 478.8999,335.0781 Q478.2593,335.2344 477.5562,335.2344 Q475.0562,335.2344 473.728,333.5938 Q472.4155,331.9375 472.4155,328.8125 Q472.4155,325.6875 473.728,324.0313 Q475.0562,322.375 477.5562,322.375 Q478.2593,322.375 478.8999,322.5313 Q479.5562,322.6875 480.1187,322.9844 L480.1187,325.7031 Q479.4937,325.125 478.8999,324.8594 Q478.3062,324.5781 477.6812,324.5781 Q476.3374,324.5781 475.6499,325.6563 Q474.9624,326.7188 474.9624,328.8125 Q474.9624,330.9063 475.6499,331.9844 Q476.3374,333.0469 477.6812,333.0469 Q478.3062,333.0469 478.8999,332.7813 Q479.4937,332.5 480.1187,331.9219 L480.1187,334.6406 Z " fill="#000000"/><text fill="#000000" font-family="sans-serif" font-size="14" lengthAdjust="spacing" textLength="61.4688" x="497.6499" y="333.8467">Borrador</text><line style="stroke:#181818;stroke-width:0.5;" x1="413" x2="611.2686" y1="345" y2="345"/><g data-visibility-modifier="PUBLIC_FIELD"><ellipse cx="423" cy="358.6484" fill="none" rx="3" ry="3" style="stroke:#038048;stroke-width:1;"/></g><text fill="#000000" font-family="sans-serif" font-size="14" lengthAdjust="spacing" textLength="125.1934" x="432" y="361.9951">idBorrador: String</text><g data-visibility-modifier="PUBLIC_FIELD"><ellipse cx="423" cy="374.9453" fill="none" rx="3" ry="3" style="stroke:#038048;stroke-width:1;"/></g><text fill="#000000" font-family="sans-serif" font-size="14" lengthAdjust="spacing" textLength="112.6084" x="432" y="378.292">resumen: String</text><g data-visibility-modifier="PUBLIC_FIELD"><ellipse cx="423" cy="391.2422" fill="none" rx="3" ry="3" style="stroke:#038048;stroke-width:1;"/></g><text fill="#000000" font-family="sans-serif" font-size="14" lengthAdjust="spacing" textLength="117.0039" x="432" y="394.5889">categoria: String</text><g data-visibility-modifier="PUBLIC_FIELD"><ellipse cx="423" cy="407.5391" fill="none" rx="3" ry="3" style="stroke:#038048;stroke-width:1;"/></g><text fill="#000000" font-family="sans-serif" font-size="14" lengthAdjust="spacing" textLength="124.0449" x="432" y="410.8857">gherkinText: Text</text><g data-visibility-modifier="PUBLIC_FIELD"><ellipse cx="423" cy="423.8359" fill="none" rx="3" ry="3" style="stroke:#038048;stroke-width:1;"/></g><text fill="#000000" font-family="sans-serif" font-size="14" lengthAdjust="spacing" textLength="98.376" x="432" y="427.1826">estado: String</text><g data-visibility-modifier="PUBLIC_FIELD"><ellipse cx="423" cy="440.1328" fill="none" rx="3" ry="3" style="stroke:#038048;stroke-width:1;"/></g><text fill="#000000" font-family="sans-serif" font-size="14" lengthAdjust="spacing" textLength="154.9092" x="432" y="443.4795">versionActual: Integer</text><g data-visibility-modifier="PUBLIC_FIELD"><ellipse cx="423" cy="456.4297" fill="none" rx="3" ry="3" style="stroke:#038048;stroke-width:1;"/></g><text fill="#000000" font-family="sans-serif" font-size="14" lengthAdjust="spacing" textLength="97.9521" x="432" y="459.7764">feedback: List</text><g data-visibility-modifier="PUBLIC_FIELD"><ellipse cx="423" cy="472.7266" fill="none" rx="3" ry="3" style="stroke:#038048;stroke-width:1;"/></g><text fill="#000000" font-family="sans-serif" font-size="14" lengthAdjust="spacing" textLength="143.0693" x="432" y="476.0732">fechaCreacion: Date</text><g data-visibility-modifier="PUBLIC_FIELD"><ellipse cx="423" cy="489.0234" fill="none" rx="3" ry="3" style="stroke:#038048;stroke-width:1;"/></g><text fill="#000000" font-family="sans-serif" font-size="14" lengthAdjust="spacing" textLength="174.2686" x="432" y="492.3701">fechaActualizacion: Date</text><g data-visibility-modifier="PUBLIC_FIELD"><ellipse cx="423" cy="505.3203" fill="none" rx="3" ry="3" style="stroke:#038048;stroke-width:1;"/></g><text fill="#000000" font-family="sans-serif" font-size="14" lengthAdjust="spacing" textLength="141.1484" x="432" y="508.667">projectName: String</text><g data-visibility-modifier="PUBLIC_FIELD"><ellipse cx="423" cy="521.6172" fill="none" rx="3" ry="3" style="stroke:#038048;stroke-width:1;"/></g><text fill="#000000" font-family="sans-serif" font-size="14" lengthAdjust="spacing" textLength="160.2617" x="432" y="524.9639">sourceDocuments: List</text><line style="stroke:#181818;stroke-width:0.5;" x1="413" x2="611.2686" y1="532.2656" y2="532.2656"/></g><!--class CasoPrueba--><g class="entity" data-qualified-name="Sistema.CasoPrueba" data-source-line="70" id="ent0010"><rect fill="#F1F1F1" height="145.7813" rx="2.5" ry="2.5" style="stroke:#181818;stroke-width:0.5;" width="143.0107" x="574.5" y="65.5"/><ellipse cx="601.9409" cy="81.5" fill="#ADD1B2" rx="11" ry="11" style="stroke:#181818;stroke-width:1;"/><path d="M604.9097,87.1406 Q604.3315,87.4375 603.6909,87.5781 Q603.0503,87.7344 602.3472,87.7344 Q599.8472,87.7344 598.519,86.0938 Q597.2065,84.4375 597.2065,81.3125 Q597.2065,78.1875 598.519,76.5313 Q599.8472,74.875 602.3472,74.875 Q603.0503,74.875 603.6909,75.0313 Q604.3472,75.1875 604.9097,75.4844 L604.9097,78.2031 Q604.2847,77.625 603.6909,77.3594 Q603.0972,77.0781 602.4722,77.0781 Q601.1284,77.0781 600.4409,78.1563 Q599.7534,79.2188 599.7534,81.3125 Q599.7534,83.4063 600.4409,84.4844 Q601.1284,85.5469 602.4722,85.5469 Q603.0972,85.5469 603.6909,85.2813 Q604.2847,85 604.9097,84.4219 L604.9097,87.1406 Z " fill="#000000"/><text fill="#000000" font-family="sans-serif" font-size="14" lengthAdjust="spacing" textLength="83.3643" x="618.7056" y="86.3467">CasoPrueba</text><line style="stroke:#181818;stroke-width:0.5;" x1="575.5" x2="716.5107" y1="97.5" y2="97.5"/><g data-visibility-modifier="PUBLIC_FIELD"><ellipse cx="585.5" cy="111.1484" fill="none" rx="3" ry="3" style="stroke:#038048;stroke-width:1;"/></g><text fill="#000000" font-family="sans-serif" font-size="14" lengthAdjust="spacing" textLength="97.9385" x="594.5" y="114.4951">idCaso: String</text><g data-visibility-modifier="PUBLIC_FIELD"><ellipse cx="585.5" cy="127.4453" fill="none" rx="3" ry="3" style="stroke:#038048;stroke-width:1;"/></g><text fill="#000000" font-family="sans-serif" font-size="14" lengthAdjust="spacing" textLength="117.0107" x="594.5" y="130.792">summary: String</text><g data-visibility-modifier="PUBLIC_FIELD"><ellipse cx="585.5" cy="143.7422" fill="none" rx="3" ry="3" style="stroke:#038048;stroke-width:1;"/></g><text fill="#000000" font-family="sans-serif" font-size="14" lengthAdjust="spacing" textLength="76.5488" x="594.5" y="147.0889">texto: Text</text><g data-visibility-modifier="PUBLIC_FIELD"><ellipse cx="585.5" cy="160.0391" fill="none" rx="3" ry="3" style="stroke:#038048;stroke-width:1;"/></g><text fill="#000000" font-family="sans-serif" font-size="14" lengthAdjust="spacing" textLength="117.0039" x="594.5" y="163.3857">categoria: String</text><g data-visibility-modifier="PUBLIC_FIELD"><ellipse cx="585.5" cy="176.3359" fill="none" rx="3" ry="3" style="stroke:#038048;stroke-width:1;"/></g><text fill="#000000" font-family="sans-serif" font-size="14" lengthAdjust="spacing" textLength="114.0439" x="594.5" y="179.6826">prioridad: String</text><g data-visibility-modifier="PUBLIC_FIELD"><ellipse cx="585.5" cy="192.6328" fill="none" rx="3" ry="3" style="stroke:#038048;stroke-width:1;"/></g><text fill="#000000" font-family="sans-serif" font-size="14" lengthAdjust="spacing" textLength="98.376" x="594.5" y="195.9795">estado: String</text><line style="stroke:#181818;stroke-width:0.5;" x1="575.5" x2="716.5107" y1="203.2813" y2="203.2813"/></g><!--class KiwiTCMS--><g class="entity" data-qualified-name="KiwiTCMS" data-source-line="99" id="ent0024"><rect fill="#F1F1F1" height="56.2656" rx="2.5" ry="2.5" style="stroke:#181818;stroke-width:0.5;" width="99.7031" x="750" y="398.5"/><ellipse cx="765" cy="418.6328" fill="#ADD1B2" rx="11" ry="11" style="stroke:#181818;stroke-width:1;"/><path d="M767.9688,424.2734 Q767.3906,424.5703 766.75,424.7109 Q766.1094,424.8672 765.4063,424.8672 Q762.9063,424.8672 761.5781,423.2266 Q760.2656,421.5703 760.2656,418.4453 Q760.2656,415.3203 761.5781,413.6641 Q762.9063,412.0078 765.4063,412.0078 Q766.1094,412.0078 766.75,412.1641 Q767.4063,412.3203 767.9688,412.6172 L767.9688,415.3359 Q767.3438,414.7578 766.75,414.4922 Q766.1563,414.2109 765.5313,414.2109 Q764.1875,414.2109 763.5,415.2891 Q762.8125,416.3516 762.8125,418.4453 Q762.8125,420.5391 763.5,421.6172 Q764.1875,422.6797 765.5313,422.6797 Q766.1563,422.6797 766.75,422.4141 Q767.3438,422.1328 767.9688,421.5547 L767.9688,424.2734 Z " fill="#000000"/><text fill="#000000" font-family="sans-serif" font-size="12" font-style="italic" lengthAdjust="spacing" textLength="61.2656" x="782.2188" y="414.6387">&#171;externo&#187;</text><text fill="#000000" font-family="sans-serif" font-size="14" lengthAdjust="spacing" textLength="67.7031" x="779" y="430.4639">KiwiTCMS</text><line style="stroke:#181818;stroke-width:0.5;" x1="751" x2="848.7031" y1="438.7656" y2="438.7656"/><line style="stroke:#181818;stroke-width:0.5;" x1="751" x2="848.7031" y1="446.7656" y2="446.7656"/></g><!--link Usuario to SesionTrabajo--><g class="link" data-entity-1="ent0003" data-entity-2="ent0004" data-link-type="dependency" data-source-line="79" id="lnk11"><path codeLine="79" d="M206.26,138.5 C247.64,138.5 290.55,138.5 332.82,138.5" fill="none" id="Usuario-to-SesionTrabajo" style="stroke:#181818;stroke-width:1;"/><polygon fill="#181818" points="338.82,138.5,329.82,134.5,333.82,138.5,329.82,142.5,338.82,138.5" style="stroke:#181818;stroke-width:1;"/><text fill="#000000" font-family="sans-serif" font-size="13" lengthAdjust="spacing" textLength="96.9922" x="224.5" y="131.5669">crea / gestiona</text></g><!--reverse link SesionTrabajo to Documentacion--><g class="link" data-entity-1="ent0004" data-entity-2="ent0005" data-link-type="aggregation" data-source-line="80" id="lnk12"><path codeLine="80" d="M328.4374,192.0121 C278.0074,221.0121 231.61,257.47 201,313 C147.44,410.16 130.18,540.34 124.62,616.84" fill="none" id="SesionTrabajo-backto-Documentacion" style="stroke:#181818;stroke-width:1;"/><polygon fill="none" points="338.84,186.03,331.6447,185.5535,328.4374,192.0121,335.6327,192.4886,338.84,186.03" style="stroke:#181818;stroke-width:1;"/><text fill="#000000" font-family="sans-serif" font-size="13" lengthAdjust="spacing" textLength="46.0205" x="202" y="431.0669">agrupa</text></g><!--reverse link SesionTrabajo to CasoDeUso--><g class="link" data-entity-1="ent0004" data-entity-2="ent0006" data-link-type="aggregation" data-source-line="81" id="lnk13"><path codeLine="81" d="M353.8232,246.372 C338.5832,270.142 331.27,286.35 323,313 C267.92,490.49 257.85,711.16 256.59,822.91" fill="none" id="SesionTrabajo-backto-CasoDeUso" style="stroke:#181818;stroke-width:1;"/><polygon fill="none" points="360.3,236.27,353.6942,239.1621,353.8232,246.372,360.4289,243.48,360.3,236.27" style="stroke:#181818;stroke-width:1;"/><text fill="#000000" font-family="sans-serif" font-size="13" lengthAdjust="spacing" textLength="46.0205" x="273" y="583.0669">agrupa</text></g><!--reverse link SesionTrabajo to RequisitoFuncional--><g class="link" data-entity-1="ent0004" data-entity-2="ent0007" data-link-type="aggregation" data-source-line="82" id="lnk14"><path codeLine="82" d="M548.0598,232.5034 C591.1898,270.2534 624.17,300.95 630,313 C681.32,419.06 648,459.67 648,577.5 C648,577.5 648,577.5 648,897 C648,1000.88 527.7,1057.97 437.72,1086.15" fill="none" id="SesionTrabajo-backto-RequisitoFuncional" style="stroke:#181818;stroke-width:1;"/><polygon fill="none" points="539.03,224.6,540.9104,231.5616,548.0598,232.5034,546.1793,225.5418,539.03,224.6" style="stroke:#181818;stroke-width:1;"/><text fill="#000000" font-family="sans-serif" font-size="13" lengthAdjust="spacing" textLength="46.0205" x="649" y="686.0669">agrupa</text></g><!--reverse link SesionTrabajo to EscenarioGherkin--><g class="link" data-entity-1="ent0004" data-entity-2="ent0008" data-link-type="aggregation" data-source-line="83" id="lnk15"><path codeLine="83" d="M371.7085,246.8098 C359.2585,270.9998 353.5,286.86 347,313 C322.65,410.91 329.21,440.69 347,540 C351.63,565.86 360.7,593.18 369.99,616.79" fill="none" id="SesionTrabajo-backto-EscenarioGherkin" style="stroke:#181818;stroke-width:1;"/><polygon fill="none" points="377.2,236.14,370.8977,239.6444,371.7085,246.8098,378.0109,243.3054,377.2,236.14" style="stroke:#181818;stroke-width:1;"/><text fill="#000000" font-family="sans-serif" font-size="13" lengthAdjust="spacing" textLength="46.0205" x="348" y="431.0669">agrupa</text></g><!--reverse link SesionTrabajo to Borrador--><g class="link" data-entity-1="ent0004" data-entity-2="ent0009" data-link-type="aggregation" data-source-line="84" id="lnk16"><path codeLine="84" d="M466.6793,247.9568 C472.9693,272.5868 476.81,287.64 483.28,312.98" fill="none" id="SesionTrabajo-backto-Borrador" style="stroke:#181818;stroke-width:1;"/><polygon fill="none" points="463.71,236.33,461.319,243.1332,466.6793,247.9568,469.0702,241.1537,463.71,236.33" style="stroke:#181818;stroke-width:1;"/><text fill="#000000" font-family="sans-serif" font-size="13" lengthAdjust="spacing" textLength="56.2847" x="476" y="279.0669">contiene</text></g><!--reverse link Documentacion to CasoDeUso--><g class="link" data-entity-1="ent0005" data-entity-2="ent0006" data-link-type="aggregation" data-source-line="86" id="lnk17"><path codeLine="86" d="M168.9354,756.3884 C184.2354,780.4684 195.32,797.91 211.08,822.72" fill="none" id="Documentacion-backto-CasoDeUso" style="stroke:#181818;stroke-width:1;"/><polygon fill="none" points="162.5,746.26,162.3416,753.4694,168.9354,756.3884,169.0939,749.1791,162.5,746.26" style="stroke:#181818;stroke-width:1;"/></g><!--reverse link Documentacion to RequisitoFuncional--><g class="link" data-entity-1="ent0005" data-entity-2="ent0007" data-link-type="aggregation" data-source-line="87" id="lnk18"><path codeLine="87" d="M110.5941,758.063 C104.1041,819.243 104.3,900.36 143,969 C165.93,1009.66 206.07,1041.44 244.25,1064.41" fill="none" id="Documentacion-backto-RequisitoFuncional" style="stroke:#181818;stroke-width:1;"/><polygon fill="none" points="111.86,746.13,107.2494,751.6746,110.5941,758.063,115.2048,752.5185,111.86,746.13" style="stroke:#181818;stroke-width:1;"/></g><!--link CasoDeUso to RequisitoFuncional--><g class="link" data-entity-1="ent0006" data-entity-2="ent0007" data-link-type="association" data-source-line="89" id="lnk19"><path codeLine="89" d="M285.56,969.24 C295.4,994.15 306.35,1021.84 315.9,1046" fill="none" id="CasoDeUso-RequisitoFuncional" style="stroke:#181818;stroke-width:1;"/><text fill="#000000" font-family="sans-serif" font-size="13" lengthAdjust="spacing" textLength="33.1982" x="305" y="1012.0669">traza</text></g><!--link EscenarioGherkin to CasoDeUso--><g class="link" data-entity-1="ent0008" data-entity-2="ent0006" data-link-type="dependency" data-source-line="91" id="lnk20"><path codeLine="91" d="M351.74,746.19 C344.67,756.09 337.56,766.26 331,776 C320.95,790.93 313.705,802.0951 303.965,817.6451" fill="none" id="EscenarioGherkin-to-CasoDeUso" style="stroke:#181818;stroke-width:1;"/><polygon fill="#181818" points="300.78,822.73,308.9474,817.226,303.4342,818.4926,302.1676,812.9794,300.78,822.73" style="stroke:#181818;stroke-width:1;"/><text fill="#000000" font-family="sans-serif" font-size="13" lengthAdjust="spacing" textLength="82.8242" x="332" y="789.0669">cubre / traza</text></g><!--link EscenarioGherkin to RequisitoFuncional--><g class="link" data-entity-1="ent0008" data-entity-2="ent0007" data-link-type="dependency" data-source-line="92" id="lnk21"><path codeLine="92" d="M417.17,746.29 C419.68,761.54 420.84,777.81 419,793 C408.17,882.18 382.5252,976.7294 363.2752,1040.0494" fill="none" id="EscenarioGherkin-to-RequisitoFuncional" style="stroke:#181818;stroke-width:1;"/><polygon fill="#181818" points="361.53,1045.79,367.9749,1038.3426,362.9843,1041.0062,360.3207,1036.0157,361.53,1045.79" style="stroke:#181818;stroke-width:1;"/><text fill="#000000" font-family="sans-serif" font-size="13" lengthAdjust="spacing" textLength="82.8242" x="415" y="900.5669">cubre / traza</text></g><!--reverse link Borrador to EscenarioGherkin--><g class="link" data-entity-1="ent0009" data-entity-2="ent0008" data-link-type="aggregation" data-source-line="94" id="lnk22"><path codeLine="94" d="M456.7166,551.2669 C445.0066,577.4869 437.84,593.55 427.46,616.78" fill="none" id="Borrador-backto-EscenarioGherkin" style="stroke:#181818;stroke-width:1;"/><polygon fill="none" points="461.61,540.31,455.511,544.1573,456.7166,551.2669,462.8156,547.4196,461.61,540.31" style="stroke:#181818;stroke-width:1;"/><text fill="#000000" font-family="sans-serif" font-size="13" lengthAdjust="spacing" textLength="56.2847" x="446" y="583.0669">contiene</text></g><!--link CasoPrueba to Borrador--><g class="link" data-entity-1="ent0010" data-entity-2="ent0009" data-link-type="dependency" data-source-line="96" id="lnk23"><path codeLine="96" d="M612.19,211.67 C597.8,242.37 583.2353,273.4567 567.2653,307.5467" fill="none" id="CasoPrueba-to-Borrador" style="stroke:#181818;stroke-width:1;"/><polygon fill="#181818" points="564.72,312.98,572.1602,306.5269,566.8411,308.4522,564.9158,303.1331,564.72,312.98" style="stroke:#181818;stroke-width:1;"/><text fill="#000000" font-family="sans-serif" font-size="13" lengthAdjust="spacing" textLength="61.2485" x="584" y="279.0669">deriva de</text></g><!--link CasoPrueba to KiwiTCMS--><g class="link" data-entity-1="ent0010" data-entity-2="ent0024" data-link-type="dependency" data-source-line="101" id="lnk25"><path codeLine="101" d="M684.86,211.67 C717.56,272.4 759.6961,350.6468 782.5461,393.0968" fill="none" id="CasoPrueba-to-KiwiTCMS" style="stroke:#181818;stroke-width:1;"/><polygon fill="#181818" points="785.39,398.38,784.6464,388.5593,783.0201,393.9773,777.6021,392.3511,785.39,398.38" style="stroke:#181818;stroke-width:1;"/><text fill="#000000" font-family="sans-serif" font-size="13" lengthAdjust="spacing" textLength="55.7324" x="724" y="279.0669">registrar</text></g><?plantuml-src lLJ1Rjim3BtxAuHUXs3te0Ym9Uqmh1k69Fi0HcOTjRRaKLAwTTY_ZueZsQgTeEXX9qCaPRxt-AWMv2DKAAusoZfiu4hyAGfPWxNYX_L0od10Y7UgF1tdOkD8wIe4jMbsX1C9_f6gXm4osV4UvHxMM75FueihS5ZyZNqtQ9NHMu8TFAJkNN3SV1WfqKfIhJmMRl6N2y6Mp0DAzmsQhBOnfJcro81R1sKMQS6Q3z9vO0AVjSCAAJ5O4aBNxSWWXhjozJpC9NOh8ts3sXsJaLqM77PtgZKtsX6KC0nBmqYq2aWZJy9x9DHImQk5NZAr5O-l7_7o3G8pk6VOgLgLKDufXnIKYicndWUaRf9Hp0HdZJ-ziigPMwz32wWZhlNj_qDnOoNguETFUwH7bKQKulbudA-pIAKEE83rj1-UN7zA_JuQukaQYdtYETiUjC4UcGDuafMXVDfL1paqU0NvILTZkUCNOIxks35lyVdvZRF6ayJeT7jgaPdnEtdSGLGYHB8V-AO1-ftfpnm7Ep0fIiipes2B2tlEAE9h9sOByU89cWl90eZtek9hmPX5dXTcDXCl5dike2BVJfVsYtUnR68XBjQFh7knEXcFwV5peb1ZKUGaZeK9x5Ho0cDHzFJ4MHh7VIsA4MI-iSW5afvV8HQ_kp6w4EedE-JtYaJth5Qz2WClTdW6MfL8wW3ywQtxHJsfxVBhHbnVin6Hj5ainZz9LND1tOCCz0y0?></g></svg>